<?xml version="1.0" standalone="no"?>
<!DOCTYPE svg PUBLIC "-//W3C//DTD SVG 20010904//EN"
 "http://www.w3.org/TR/2001/REC-SVG-20010904/DTD/svg10.dtd">
<svg version="1.0" xmlns="http://www.w3.org/2000/svg"
 width="300.000000pt" height="246.000000pt" viewBox="0 0 300.000000 246.000000"
 preserveAspectRatio="xMidYMid meet">
<defs>
<style>
    path{
        fill:#fff:
    }
</style>
</defs>
<metadata>
Created by potrace 1.10, written by Peter Selinger 2001-2011
</metadata>
<g transform="translate(0.000000,246.000000) scale(0.100000,-0.100000)"
fill="#000000" stroke="none">
<path d="M1122 2423 c-6 -21 -13 -47 -14 -58 -2 -10 -23 -34 -48 -53 -57 -43
-64 -61 -14 -34 22 11 46 22 55 25 19 6 62 157 44 157 -6 0 -17 -17 -23 -37z"/>
<path d="M1172 2433 c0 -16 -3 -45 -7 -65 -7 -37 -7 -38 19 -36 28 3 30 6 40
86 6 41 6 42 -23 42 -26 0 -30 -3 -29 -27z"/>
<path d="M1265 2406 c-8 -60 -1 -96 10 -58 4 12 14 22 21 22 8 0 14 6 14 14 0
7 3 28 6 45 6 28 4 31 -19 31 -23 0 -26 -5 -32 -54z"/>
<path d="M1360 2416 c0 -36 3 -44 18 -42 12 2 18 14 20 44 3 37 1 42 -17 42
-18 0 -21 -6 -21 -44z"/>
<path d="M1598 2408 c4 -50 17 -87 18 -50 1 9 2 22 4 27 7 26 -1 75 -12 75 -9
0 -12 -15 -10 -52z"/>
<path d="M1677 2423 c3 -21 9 -40 13 -43 4 -3 9 -14 11 -24 2 -11 10 -21 17
-22 7 -1 9 -1 5 2 -5 2 -6 31 -5 64 4 58 3 60 -21 60 -24 0 -25 -3 -20 -37z"/>
<path d="M1770 2441 c0 -11 5 -23 10 -26 6 -3 10 -19 10 -34 0 -16 7 -34 16
-42 14 -11 15 -6 10 52 -4 43 -3 58 3 44 9 -19 10 -19 10 3 1 18 -4 22 -29 22
-23 0 -30 -5 -30 -19z"/>
<path d="M1854 2445 c3 -8 8 -36 12 -63 6 -44 36 -103 47 -92 3 3 -4 42 -16
88 -14 54 -26 82 -35 82 -8 0 -12 -6 -8 -15z"/>
<path d="M1700 2266 c0 -55 1 -58 15 -40 17 23 19 44 4 44 -6 0 -9 6 -6 13 3
8 1 20 -4 28 -6 9 -9 -7 -9 -45z"/>
<path d="M1608 2239 c-2 -22 0 -43 4 -45 4 -3 8 -15 8 -27 0 -17 -2 -19 -9 -8
-6 9 -10 -9 -13 -55 -2 -38 -3 -71 -2 -72 2 -2 11 13 21 35 17 36 21 82 10
128 -2 11 -1 25 4 31 9 11 1 54 -11 54 -4 0 -10 -18 -12 -41z"/>
<path d="M1270 2258 c0 -9 9 -26 19 -39 19 -23 20 -23 18 -4 -1 26 -37 67 -37
43z"/>
<path d="M1022 2213 c6 -7 17 -13 24 -13 8 0 14 -3 14 -6 0 -7 -202 -296 -545
-779 -430 -606 -482 -680 -493 -702 -21 -40 -15 -138 13 -193 56 -111 249
-413 285 -445 27 -25 88 -44 142 -45 36 0 53 6 77 25 37 31 48 66 55 174 5 82
7 85 87 228 46 81 93 152 108 161 22 15 81 18 496 24 258 4 511 11 560 17 99
12 107 17 153 105 l24 44 -66 158 c-36 86 -63 160 -60 163 4 3 9 1 11 -6 6
-17 81 -138 229 -373 216 -340 236 -370 244 -370 18 0 21 21 5 36 -15 15 -15
18 2 37 17 19 17 19 -3 13 -18 -5 -26 0 -45 31 -13 21 -27 40 -31 41 -4 2 -8
8 -8 14 0 5 -9 21 -20 35 -23 29 -26 48 -7 37 6 -4 9 -4 5 1 -4 4 -18 13 -30
19 -13 7 -23 18 -23 25 0 8 -11 26 -25 41 -14 15 -34 45 -45 66 -11 21 -22 41
-25 44 -10 10 -70 111 -70 118 0 4 -11 19 -25 34 -14 15 -25 32 -25 37 0 20
-73 131 -86 131 -7 0 -18 8 -23 18 -8 13 -11 14 -11 2 -1 -17 -60 106 -60 124
0 6 5 4 10 -4 5 -8 10 -11 10 -6 0 4 -11 22 -25 38 -14 16 -23 34 -19 39 3 5
2 9 -3 9 -4 0 -19 18 -32 40 -13 21 -32 41 -43 43 -12 3 -16 11 -12 21 3 9 2
16 -4 16 -5 0 -15 13 -22 29 -6 16 -18 32 -27 35 -10 4 -12 13 -7 28 3 13 3
20 -1 16 -9 -8 -33 20 -92 110 -35 54 -40 67 -30 83 14 22 27 25 27 5 0 -7 9
-16 19 -19 15 -3 18 -1 14 12 -5 14 -3 14 13 -2 15 -14 16 -19 5 -26 -11 -7
-11 -10 1 -17 14 -8 22 -22 64 -106 9 -18 27 -43 41 -56 13 -13 20 -28 17 -34
-5 -7 -2 -8 6 -3 10 6 12 3 8 -13 -4 -14 -2 -20 5 -15 6 4 8 0 4 -10 -4 -11
-2 -14 9 -10 11 4 15 0 12 -13 -2 -12 2 -18 11 -16 8 2 11 -3 8 -12 -4 -9 -1
-15 6 -13 7 1 11 -4 9 -11 -1 -8 12 -30 29 -50 19 -21 27 -38 20 -40 -6 -2
-11 -8 -11 -13 0 -4 6 -6 13 -3 8 3 37 -32 78 -97 35 -55 69 -107 76 -114 9
-9 9 -15 0 -24 -8 -8 -8 -11 2 -11 8 0 10 -7 6 -20 -4 -11 -2 -20 4 -20 6 0
11 10 11 23 1 16 8 8 25 -28 13 -27 24 -58 24 -67 1 -10 6 -18 11 -18 6 0 10
-6 8 -12 -3 -18 24 -58 40 -58 17 0 61 -51 61 -70 0 -8 -4 -5 -10 8 -9 24 -29
22 -29 -4 0 -8 5 -12 10 -9 6 3 10 3 10 -2 0 -4 10 -19 21 -33 l20 -25 -6 25
c-5 19 0 16 19 -14 13 -21 22 -45 19 -54 -4 -10 -1 -13 8 -10 12 4 59 -49 59
-67 0 -9 54 -89 65 -97 5 -4 6 -10 3 -14 -4 -4 2 -20 13 -36 12 -16 18 -35 15
-43 -3 -8 3 -17 15 -20 11 -4 18 -12 16 -19 -3 -7 3 -19 14 -27 24 -17 24 -26
-2 -40 -15 -7 -24 -8 -32 0 -14 14 -16 54 -3 63 7 5 5 8 -5 8 -32 0 -43 -27
-30 -70 12 -42 9 -81 -15 -164 -8 -27 -14 -72 -14 -99 l0 -49 123 3 c171 5
169 4 323 256 164 267 172 284 175 370 3 63 0 76 -21 105 -60 82 -729 1021
-849 1191 -124 176 -184 274 -176 287 2 3 -8 6 -21 6 -15 1 -24 -4 -24 -13 0
-11 88 -147 122 -188 17 -20 97 -134 182 -260 49 -71 108 -156 132 -188 24
-31 45 -62 47 -68 1 -7 15 -26 30 -43 15 -17 43 -53 62 -81 19 -27 57 -81 85
-120 27 -38 58 -81 67 -95 64 -92 320 -447 330 -458 8 -8 13 -38 13 -73 0 -56
-4 -68 -65 -169 -60 -102 -153 -249 -196 -312 -11 -15 -19 -31 -19 -36 0 -5
-10 -18 -23 -30 -20 -19 -35 -22 -110 -22 -70 0 -93 -4 -122 -21 -20 -12 -38
-19 -41 -16 -10 10 17 88 32 94 11 4 12 8 4 13 -8 5 -8 14 0 34 5 15 10 45 10
68 0 31 4 41 20 45 11 3 20 9 20 14 0 5 7 6 15 3 11 -5 13 -10 5 -19 -6 -7 -7
-21 -3 -30 4 -13 3 -16 -5 -11 -7 4 -12 2 -12 -5 0 -7 -10 -23 -22 -36 -18
-20 -19 -23 -5 -23 20 0 22 -11 5 -28 -9 -9 -9 -12 2 -12 10 0 11 -3 3 -11
-12 -12 -7 -39 7 -39 4 0 13 28 20 62 6 35 15 68 20 73 4 6 10 27 14 48 7 39
-17 103 -53 145 -9 10 -25 33 -35 52 -10 19 -36 60 -56 90 -21 31 -40 66 -44
78 -4 12 -11 22 -16 22 -5 0 -12 10 -16 23 -4 12 -20 38 -35 58 -16 20 -29 39
-29 42 0 3 -19 35 -41 72 -29 46 -45 63 -53 56 -8 -6 -17 -6 -26 0 -12 8 -11
9 4 7 24 -4 31 15 14 33 -7 8 -19 25 -26 39 -18 37 -149 254 -214 353 -15 23
-37 58 -48 77 -11 19 -33 54 -48 77 -37 57 -177 284 -221 357 l-36 60 -8 -55
c-12 -75 -14 -79 -36 -79 -19 0 -37 -23 -137 -172 -25 -38 -49 -68 -54 -68 -4
0 -6 -9 -3 -19 3 -13 -2 -24 -16 -33 -12 -7 -21 -20 -21 -30 0 -9 -4 -18 -8
-20 -12 -5 -52 -65 -52 -78 0 -6 -19 -31 -42 -56 -22 -24 -49 -61 -58 -82 -10
-22 -25 -42 -35 -45 -23 -9 -27 -9 -20 2 3 5 1 12 -5 16 -6 4 -8 11 -4 16 3 5
9 7 13 5 4 -3 15 12 25 32 10 20 25 50 33 65 8 15 20 39 27 52 7 14 16 22 19
18 4 -3 7 1 7 11 0 10 5 14 12 10 6 -4 8 -3 5 3 -6 10 37 81 60 98 8 6 15 17
17 25 4 24 29 70 36 70 4 0 13 15 21 33 14 36 69 120 81 125 4 2 17 20 30 40
22 36 22 36 29 12 6 -20 7 -17 7 15 0 22 -3 51 -7 65 -7 24 -7 23 -31 -15 -32
-54 -257 -421 -286 -467 -124 -197 -154 -247 -154 -258 0 -7 110 -10 326 -10
299 0 328 1 340 17 13 17 15 17 27 1 14 -18 27 -14 27 8 0 6 -9 14 -20 17 -16
4 -19 12 -16 43 2 22 4 57 5 79 2 30 4 35 10 20 6 -15 10 -6 15 33 12 91 19
82 120 -158 43 -102 99 -232 124 -289 37 -84 43 -106 34 -120 -7 -9 -26 -37
-43 -63 l-31 -48 -608 5 -609 5 -18 -38 c-9 -20 -21 -41 -26 -47 -4 -5 -17
-23 -27 -40 -11 -16 -40 -61 -65 -100 -91 -140 -90 -137 -70 -229 10 -45 21
-88 25 -96 4 -8 10 -28 14 -44 l7 -29 -86 5 c-48 2 -90 9 -93 14 -4 6 -18 18
-32 28 l-25 17 30 -6 c22 -4 25 -3 10 3 -11 5 -20 15 -20 23 -1 8 -6 13 -13
11 -9 -1 -11 6 -6 25 4 21 3 24 -5 13 -5 -8 -11 -12 -13 -10 -2 3 -17 23 -33
44 -17 22 -41 59 -55 83 -14 23 -48 80 -76 125 -78 126 -85 142 -83 198 2 54
0 51 164 280 267 374 454 638 523 736 46 66 152 217 237 338 85 120 155 222
155 226 0 4 -22 7 -49 6 -38 -1 -47 -4 -39 -13z m573 -618 c86 -139 93 -161
75 -211 -6 -15 -14 -65 -19 -112 -5 -46 -14 -88 -21 -92 -22 -13 -500 -29
-500 -16 0 18 28 69 60 111 21 27 77 113 125 190 86 138 184 279 191 273 2 -2
42 -66 89 -143z m-846 -944 c11 -7 10 -12 -5 -29 -29 -31 -37 -44 -62 -94 -13
-26 -38 -68 -55 -95 -18 -26 -41 -68 -51 -93 -27 -61 -30 -63 -55 -42 l-23 18
32 47 c17 26 37 47 43 48 9 0 9 2 0 6 -19 7 8 32 27 25 12 -5 13 -3 2 10 -16
20 -6 47 22 58 19 8 19 9 2 9 -15 1 -16 4 -6 16 7 8 16 12 21 9 5 -3 9 4 9 15
0 12 9 30 19 40 11 11 17 22 14 25 -9 9 18 36 36 36 9 0 22 -4 30 -9z m-208
-398 c1 -17 2 -17 6 0 2 9 9 17 14 17 14 0 11 -16 -6 -30 -17 -14 -21 -35 -5
-25 6 3 10 0 10 -8 0 -7 -7 -14 -15 -14 -16 0 -28 24 -19 38 3 6 0 16 -6 24
-10 12 -9 15 4 15 9 0 17 -8 17 -17z m20 -83 c13 0 11 -18 -3 -34 -10 -11 -15
-8 -25 12 -17 32 -16 35 3 28 9 -3 20 -6 25 -6z"/>
<path d="M1747 2223 c-4 -3 -7 -15 -7 -25 0 -10 -4 -18 -8 -18 -8 0 -142 -212
-142 -225 0 -15 33 -54 42 -49 5 3 4 12 -3 20 -9 12 -5 14 24 14 25 0 37 -5
40 -17 4 -17 5 -17 6 0 0 10 5 16 10 12 5 -3 12 -1 16 5 4 6 -16 10 -54 10
-34 0 -61 4 -61 10 0 6 24 10 53 10 47 1 50 2 34 15 -15 10 -17 21 -12 44 4
17 11 29 16 25 5 -3 12 3 16 13 3 10 15 28 25 39 17 19 18 25 7 42 -18 29 -4
39 22 16 l21 -19 -7 33 c-6 27 -4 32 13 32 10 0 26 -8 34 -17 33 -40 98 -154
93 -164 -4 -5 -1 -8 5 -7 6 2 18 -6 26 -17 13 -20 12 -21 -31 -23 -42 -1 -44
-1 -47 31 l-3 32 -6 -37 -5 -38 62 0 c35 0 66 -4 69 -10 4 -6 -10 -10 -36 -10
-23 0 -39 -3 -36 -7 4 -3 20 -6 37 -5 22 0 35 -7 52 -31 12 -18 26 -33 30 -35
4 -2 8 -10 8 -18 0 -8 5 -14 12 -14 6 0 0 -10 -13 -22 -16 -14 -18 -19 -7 -15
10 3 20 2 23 -4 4 -5 1 -8 -6 -7 -24 6 -19 -22 6 -28 18 -4 23 -10 16 -18 -6
-7 -6 -18 -2 -25 7 -11 11 -9 21 8 9 18 8 28 -9 56 -11 20 -16 37 -10 40 5 4
9 10 9 14 0 7 -37 58 -70 98 -5 7 -10 17 -10 23 0 6 -15 31 -32 55 -18 24 -60
82 -92 129 -57 81 -62 86 -96 86 -20 0 -40 -3 -43 -7z"/>
<path d="M1161 2192 c-7 -16 -28 -45 -47 -64 -27 -28 -31 -37 -19 -42 9 -3 15
0 15 8 0 7 11 18 24 26 14 7 22 18 19 26 -3 8 2 17 11 20 9 3 16 12 16 20 0 8
10 14 26 14 14 0 23 4 19 10 -13 22 -52 10 -64 -18z"/>
<path d="M1270 2162 c0 -12 6 -25 13 -29 7 -4 33 -41 57 -80 25 -40 48 -73 52
-73 13 0 10 5 -42 84 -27 42 -50 80 -50 85 0 4 -7 14 -15 21 -13 10 -15 9 -15
-8z"/>
<path d="M1356 2155 c-6 -25 16 -89 35 -101 12 -7 11 47 -1 66 -7 11 -10 11
-10 2 0 -7 -5 -10 -11 -7 -6 4 -7 19 -4 36 8 36 0 39 -9 4z"/>
<path d="M1775 2111 c-3 -7 -4 -16 -1 -18 6 -7 46 16 46 27 0 14 -39 7 -45 -9z"/>
<path d="M1058 2062 c-9 -9 -55 -75 -103 -147 -49 -71 -101 -148 -117 -170
-30 -41 -118 -166 -140 -199 -7 -10 -39 -55 -70 -100 -31 -44 -79 -112 -105
-149 -26 -38 -52 -74 -58 -81 -18 -22 -75 -107 -75 -112 0 -4 -12 -21 -28 -39
-30 -36 -39 -49 -82 -120 -18 -29 -21 -38 -8 -21 64 82 58 79 118 66 30 -6 62
-11 70 -12 8 -1 17 -4 20 -8 3 -3 26 -16 51 -28 25 -13 66 -43 90 -67 37 -37
50 -45 82 -45 24 0 37 5 37 13 0 22 -111 133 -158 158 -34 19 -45 21 -51 10
-6 -9 -11 -10 -15 -2 -4 6 -4 11 1 12 4 0 -3 5 -17 11 -14 6 -33 10 -42 9 -10
-1 -18 3 -18 9 0 6 -5 8 -11 5 -7 -5 -4 -14 8 -28 17 -20 17 -20 0 -14 -10 4
-22 7 -27 7 -4 0 -10 9 -13 20 -3 11 0 20 6 20 7 0 6 4 -3 10 -11 7 -8 11 15
20 23 9 26 13 15 20 -13 8 -13 10 2 10 14 0 48 44 58 75 1 6 11 16 22 23 10 7
15 18 12 24 -4 7 -2 8 4 4 12 -7 16 5 13 32 -1 7 7 16 18 20 26 9 88 103 63
96 -13 -4 -12 -2 2 7 34 21 67 62 62 76 -3 7 4 18 15 24 11 6 18 17 15 24 -3
8 -1 17 4 20 4 3 10 0 12 -6 2 -6 10 2 18 18 8 15 21 33 29 39 8 6 11 16 7 22
-4 7 3 17 19 24 14 6 24 17 21 24 -3 7 3 15 12 19 14 5 14 7 2 15 -11 7 -8 11
13 21 15 7 27 17 27 22 0 6 21 37 46 69 25 32 42 62 39 68 -3 5 0 10 9 10 8 0
20 13 27 29 7 16 17 27 21 25 4 -3 8 7 8 21 0 15 4 24 10 20 5 -3 7 0 4 8 -3
8 2 20 11 27 8 7 15 18 15 25 0 8 5 15 12 17 8 3 9 6 1 11 -6 4 -17 -1 -25
-11z m-495 -1086 c21 -16 22 -26 2 -26 -8 0 -14 6 -12 13 1 6 -6 11 -15 9 -10
-2 -18 2 -18 8 0 14 21 12 43 -4z"/>
<path d="M1509 2062 c-4 -79 0 -114 11 -107 5 3 7 31 5 62 -4 56 -14 84 -16
45z"/>
<path d="M1737 2054 c-24 -32 -19 -68 10 -72 18 -3 21 0 17 13 -6 13 -8 14
-15 3 -6 -9 -9 -6 -9 10 0 14 8 26 20 30 17 6 18 10 8 24 -12 16 -15 15 -31
-8z"/>
<path d="M1176 2033 c-13 -13 -5 -25 9 -13 14 12 19 7 16 -13 -1 -5 3 -6 8 -3
5 4 14 -2 20 -11 13 -24 23 -11 13 17 -8 22 -52 37 -66 23z"/>
<path d="M1082 1991 c-12 -21 -18 -42 -14 -46 4 -5 2 -5 -4 -2 -7 4 -49 -48
-105 -129 -52 -74 -120 -172 -151 -217 -32 -45 -63 -90 -70 -101 -7 -10 -37
-50 -66 -89 -33 -45 -48 -73 -41 -76 7 -2 21 7 31 20 10 13 37 48 59 77 l39
52 63 0 c59 0 63 2 83 33 65 97 160 243 164 252 13 26 105 160 112 163 11 5
-20 62 -33 62 -11 0 -9 -16 6 -53 6 -13 3 -16 -9 -11 -9 3 -16 11 -16 18 0 6
-9 -2 -19 -18 -11 -17 -17 -34 -14 -39 3 -5 12 3 19 19 l12 29 -1 -29 c-1 -15
-7 -31 -14 -33 -7 -3 -13 -13 -13 -22 0 -9 -9 -27 -20 -41 -22 -28 -25 -24
-10 14 6 17 6 27 -2 32 -7 4 -8 3 -4 -4 4 -7 3 -12 -2 -12 -15 0 -63 -80 -56
-93 4 -7 4 -9 -1 -5 -10 10 -78 -79 -70 -92 11 -17 35 -12 28 6 -3 10 0 22 8
28 8 6 14 17 14 25 0 7 10 17 23 22 16 6 22 5 22 -5 0 -8 -7 -17 -16 -20 -8
-3 -13 -9 -11 -13 6 -9 -19 -34 -26 -27 -3 3 -4 -3 -3 -13 0 -12 -6 -18 -19
-19 -11 -1 -31 -6 -45 -11 -14 -6 -28 -9 -32 -6 -5 2 -8 -3 -8 -11 0 -9 9 -16
21 -16 11 0 17 5 14 10 -3 6 0 10 9 10 8 0 16 5 18 12 3 8 7 8 11 2 9 -16 -59
-111 -85 -118 -69 -18 -85 7 -36 56 14 14 24 29 22 31 -3 3 6 14 20 25 15 11
26 27 26 36 0 9 6 16 14 16 7 0 21 15 30 34 8 18 22 39 31 46 8 7 15 16 15 21
0 5 18 36 40 68 22 32 40 62 40 66 0 3 16 26 35 50 22 27 33 48 29 59 -9 24
-18 20 -42 -23z m-22 -211 c0 -5 -9 -14 -20 -20 -15 -8 -20 -8 -20 3 0 8 3 17
7 20 10 10 33 8 33 -3z"/>
<path d="M1305 1960 c-4 -6 12 -10 39 -10 43 0 45 -1 34 -19 -7 -12 -20 -18
-35 -15 -25 5 -30 -5 -12 -23 8 -8 6 -17 -8 -32 -29 -34 -103 -169 -103 -188
0 -15 24 17 64 85 25 42 63 101 85 131 23 30 41 61 41 68 0 16 -95 19 -105 3z"/>
<path d="M1654 1869 c1 -17 7 -34 13 -37 5 -4 18 -22 27 -39 9 -18 28 -49 42
-70 21 -30 25 -32 19 -13 -4 14 -14 35 -22 48 -8 13 -12 31 -9 39 5 13 4 14
-9 3 -16 -14 -18 -11 -19 40 -1 18 -6 25 -19 23 -12 0 -16 4 -13 13 3 7 1 16
-3 19 -5 3 -8 -9 -7 -26z"/>
<path d="M2100 1811 c0 -7 19 -38 43 -69 23 -31 56 -77 72 -102 17 -25 34 -48
39 -51 4 -4 10 -42 13 -85 3 -44 11 -88 19 -99 7 -11 36 -49 64 -85 27 -35 50
-73 50 -84 0 -20 0 -20 -15 0 -8 10 -15 15 -15 10 0 -17 32 -45 46 -39 8 3 14
0 14 -6 0 -6 -5 -11 -10 -11 -15 0 12 -49 46 -85 16 -16 27 -36 26 -43 -2 -9
5 -11 25 -6 36 9 42 14 15 14 -12 0 -22 5 -22 11 0 6 -6 17 -14 25 -11 10 -15
11 -19 1 -2 -6 -10 7 -16 31 -7 24 -15 50 -18 58 -4 10 3 14 25 14 43 0 62 -9
62 -30 0 -10 9 -22 21 -25 15 -5 19 -13 16 -27 -6 -21 11 -58 27 -58 5 0 1 9
-9 20 -10 11 -13 20 -8 20 6 0 18 -11 27 -24 15 -23 14 -25 -6 -28 -22 -3 -38
-28 -18 -28 6 0 8 5 5 10 -3 6 1 10 9 10 18 0 57 -40 51 -50 -6 -10 45 -23 53
-15 4 3 2 9 -4 13 -5 4 -36 43 -67 87 -31 44 -66 91 -77 105 -11 14 -20 27
-20 30 0 3 -27 3 -60 2 -39 -3 -60 0 -60 7 0 7 22 11 55 11 l55 0 -37 53 c-20
28 -55 77 -78 107 -23 30 -65 89 -93 130 -96 140 -191 273 -202 284 -7 7 -10
6 -10 -3z m250 -378 c0 -8 -5 -24 -11 -36 -9 -18 -9 -20 2 -9 18 16 29 15 29
-3 0 -8 5 -15 10 -15 6 0 19 -9 29 -19 17 -17 18 -22 5 -38 -13 -17 -15 -17
-34 7 -11 14 -29 34 -40 45 -11 12 -20 25 -20 30 0 6 -9 16 -20 23 -26 16 -25
30 3 34 30 5 47 -1 47 -19z m95 -133 c3 -6 0 -17 -9 -25 -17 -17 -31 -4 -22
20 6 17 22 20 31 5z"/>
<path d="M2120 1723 c0 -7 4 -13 9 -13 4 0 7 -12 5 -27 -2 -16 -1 -20 2 -11 5
15 9 14 30 -9 14 -15 23 -32 20 -38 -2 -6 2 -12 9 -12 12 0 12 5 0 26 -20 37
-74 98 -75 84z"/>
<path d="M1192 1648 c-7 -7 -12 -21 -11 -32 0 -20 1 -20 11 2 6 12 15 22 20
22 4 0 8 5 8 10 0 14 -13 13 -28 -2z"/>
<path d="M2174 1589 c-4 -7 -3 -9 4 -5 19 12 26 -17 7 -31 -11 -7 -13 -13 -7
-13 7 0 12 -7 12 -15 0 -8 6 -15 14 -15 17 0 25 39 15 66 -4 10 -8 15 -8 10
-1 -5 -7 -3 -15 3 -11 9 -16 9 -22 0z"/>
<path d="M1870 1503 c0 -7 5 -13 10 -13 6 0 10 -6 10 -12 0 -14 48 -91 74
-120 9 -10 16 -25 16 -33 0 -8 5 -15 10 -15 14 0 13 5 -9 45 -10 19 -21 32
-25 28 -3 -3 -6 0 -6 9 0 8 -9 23 -20 33 -11 10 -20 24 -20 30 0 17 -39 63
-40 48z"/>
<path d="M1087 1474 c-10 -13 -17 -30 -15 -36 2 -6 14 5 26 25 24 42 17 49
-11 11z"/>
<path d="M2200 1490 c-9 -6 -10 -10 -3 -10 6 0 11 -10 11 -22 -4 -65 3 -178
11 -178 7 0 5 209 -2 216 -1 2 -9 -1 -17 -6z"/>
<path d="M2248 1365 c-4 -4 -3 -16 3 -27 5 -10 7 -22 4 -27 -3 -5 3 -17 12
-27 10 -10 18 -21 18 -26 0 -5 11 -14 24 -21 14 -7 26 -19 28 -27 4 -13 3 -13
-7 0 -9 13 -11 12 -8 -5 3 -13 10 -19 23 -17 15 2 16 0 7 -6 -11 -7 2 -31 55
-103 45 -62 69 -87 71 -76 2 10 8 14 14 11 5 -4 -14 28 -42 70 -29 42 -57 76
-62 76 -5 0 -7 3 -4 8 7 11 -62 102 -75 99 -6 -1 -14 4 -17 12 -3 8 0 11 7 7
7 -5 9 -1 5 9 -4 9 -9 13 -12 10 -3 -3 -12 11 -21 31 -9 20 -19 32 -23 29z"/>
<path d="M583 1273 c-15 -21 -36 -47 -45 -57 -10 -11 -18 -25 -18 -32 0 -6 -7
-17 -15 -24 -18 -15 -6 -35 25 -43 13 -3 17 -1 13 9 -3 8 -9 14 -14 14 -5 0
-9 7 -9 15 0 8 6 12 13 10 6 -3 18 4 25 15 7 12 8 20 2 20 -5 0 -10 -4 -10
-10 0 -5 -5 -10 -11 -10 -8 0 -8 5 1 15 7 8 19 15 26 15 8 0 14 10 14 24 0 14
4 28 10 31 6 4 7 -1 3 -12 -6 -17 -5 -17 15 1 12 10 19 22 17 27 -3 4 3 12 12
18 16 9 16 10 -4 11 -14 0 -32 -14 -50 -37z"/>
<path d="M2002 1293 c16 -36 53 -84 56 -74 4 13 -38 81 -51 81 -5 0 -7 -3 -5
-7z"/>
<path d="M995 1262 c-34 -45 -44 -78 -34 -109 l9 -28 -4 29 c-3 20 6 45 26 78
33 54 35 72 3 30z"/>
<path d="M2240 1254 c0 -9 10 -25 21 -35 13 -11 20 -26 16 -38 -3 -13 0 -18
12 -16 10 1 18 -7 22 -24 3 -14 10 -25 17 -23 7 1 12 -7 12 -18 0 -20 8 -33
41 -68 9 -9 19 -26 21 -37 2 -11 11 -19 20 -19 11 1 15 -4 11 -15 -3 -11 -1
-10 8 3 9 16 9 21 -3 30 -8 6 -23 26 -32 44 -9 18 -24 36 -32 39 -7 3 -14 11
-14 18 0 7 -22 42 -50 79 -27 37 -50 71 -50 76 0 5 -4 12 -10 15 -5 3 -10 -1
-10 -11z"/>
<path d="M2067 1203 c-3 -4 6 -24 19 -43 13 -19 24 -29 24 -22 0 18 -37 75
-43 65z"/>
<path d="M467 1112 c-20 -22 -21 -32 -4 -32 6 0 25 -7 41 -15 15 -8 33 -12 38
-9 6 4 -4 13 -22 22 -18 9 -27 18 -20 22 8 5 7 10 -3 18 -11 9 -18 8 -30 -6z"/>
<path d="M1043 1104 c7 -8 87 -7 95 0 3 3 -19 6 -48 6 -29 0 -51 -3 -47 -6z"/>
<path d="M617 1043 c-7 -11 28 -53 44 -53 6 0 8 4 5 9 -4 5 0 12 6 15 7 3 3 3
-10 0 -17 -4 -24 0 -30 17 -5 12 -12 18 -15 12z"/>
<path d="M2134 1032 c1 -12 8 -28 14 -34 7 -7 12 -16 12 -20 0 -5 9 -18 19
-30 11 -11 17 -26 14 -34 -3 -8 1 -14 11 -14 9 0 16 -8 16 -20 0 -11 4 -20 9
-20 5 0 13 -9 16 -20 4 -11 11 -18 16 -15 5 4 -7 31 -26 61 -19 30 -35 58 -35
63 0 4 -14 22 -30 39 -17 18 -30 34 -29 37 0 3 -2 11 -5 18 -2 6 -4 2 -2 -11z"/>
<path d="M1264 1022 c-11 -8 -12 -37 -1 -48 4 -4 7 5 7 20 l0 26 27 -17 c15
-10 24 -12 20 -6 -12 19 -42 33 -53 25z"/>
<path d="M2525 1003 c-44 -11 -85 -70 -85 -123 0 -22 11 -41 40 -70 44 -44 79
-51 128 -26 62 32 84 92 57 150 -25 53 -86 82 -140 69z m75 -28 c16 -8 37 -31
46 -50 14 -30 14 -40 4 -65 -24 -59 -109 -92 -140 -55 -7 8 -18 15 -25 15 -6
0 -12 6 -13 13 -1 6 -5 28 -8 47 -4 27 -1 42 17 63 36 46 73 56 119 32z"/>
<path d="M2509 941 c-36 -36 -37 -73 -4 -106 30 -30 64 -32 99 -4 37 29 37 89
0 118 -36 28 -60 26 -95 -8z m101 -48 c0 -20 -34 -63 -50 -63 -3 0 -16 7 -28
16 -29 20 -30 68 0 88 19 14 24 14 50 -2 17 -10 28 -25 28 -39z"/>
<path d="M1079 985 c-1 -3 -2 -9 -3 -13 -2 -13 -50 -71 -56 -68 -3 2 -13 -5
-22 -16 -17 -17 -17 -18 0 -18 9 0 39 27 65 60 31 40 42 60 32 60 -8 0 -16 -2
-16 -5z"/>
<path d="M306 937 c-15 -19 -26 -39 -26 -45 0 -7 -11 -14 -25 -18 -21 -5 -105
-101 -105 -120 0 -14 62 51 71 74 5 14 20 25 39 28 16 4 30 12 30 19 0 7 15
29 34 50 34 37 35 37 73 25 21 -7 41 -17 44 -23 4 -6 15 -7 25 -2 16 7 13 10
-18 19 -20 6 -40 14 -44 19 -4 4 -22 7 -40 7 -26 0 -39 -7 -58 -33z"/>
<path d="M2700 966 c0 -9 44 -81 58 -95 7 -7 11 -20 8 -28 -3 -8 -6 -17 -6
-20 0 -3 -7 0 -15 7 -10 9 -15 9 -15 1 0 -6 4 -11 10 -11 5 0 17 -12 25 -27 9
-16 14 -20 11 -11 -7 25 15 34 31 13 7 -11 13 -24 13 -29 0 -6 -4 -5 -9 3 -6
9 -11 10 -15 2 -4 -6 -3 -11 3 -11 6 0 8 -6 5 -14 -3 -8 -1 -17 5 -21 6 -3 9
0 5 8 -3 8 2 17 11 21 13 5 15 1 10 -14 -4 -12 -2 -20 5 -20 7 0 9 -8 5 -21
-5 -16 -3 -20 6 -17 8 3 13 13 13 22 -1 9 2 16 7 16 10 0 -153 248 -163 249
-5 1 -8 -1 -8 -3z"/>
<path d="M347 923 c-2 -5 -1 -35 3 -68 l7 -60 2 68 c1 62 -2 78 -12 60z"/>
<path d="M808 898 c-5 -11 -15 -14 -34 -10 -19 3 -25 1 -20 -7 5 -8 24 -10 53
-6 49 5 71 15 36 15 -12 0 -23 5 -25 12 -3 8 -6 7 -10 -4z"/>
<path d="M440 889 c0 -5 4 -8 9 -4 5 3 18 -6 29 -20 18 -23 20 -23 25 -6 3 13
-3 22 -20 30 -30 14 -43 14 -43 0z"/>
<path d="M770 840 c0 -5 5 -10 10 -10 6 0 10 -4 10 -10 0 -6 -26 -10 -58 -10
l-57 0 -33 -62 c-18 -35 -27 -55 -20 -44 41 59 26 55 248 55 113 0 216 0 229
0 12 -1 28 4 35 11 8 9 5 10 -16 5 -14 -4 -36 -1 -48 5 -18 10 -24 9 -31 -1
-6 -10 -9 -8 -9 9 0 12 -5 22 -12 22 -9 0 -9 3 0 12 19 19 14 29 -8 16 -17
-11 -18 -14 -4 -29 12 -13 12 -19 3 -24 -11 -7 -249 -14 -249 -7 0 2 12 14 28
27 19 18 34 23 54 19 32 -6 47 11 15 20 -35 9 -87 7 -87 -4z"/>
<path d="M1153 838 c2 -7 -5 -18 -16 -24 -18 -10 -17 -11 12 -10 20 1 30 5 26
14 -2 6 0 12 6 12 6 0 7 5 4 10 -9 15 -37 12 -32 -2z"/>
<path d="M1341 841 c-9 -6 -4 -10 18 -13 38 -6 62 7 29 15 -29 8 -30 8 -47 -2z"/>
<path d="M2681 827 c-10 -16 -10 -21 1 -28 7 -5 19 -7 26 -4 9 3 11 -1 7 -14
-3 -11 -2 -22 3 -25 16 -10 21 33 7 48 -8 7 -12 15 -11 17 2 2 -2 9 -8 15 -10
9 -16 7 -25 -9z"/>
<path d="M2298 823 c6 -2 12 -9 12 -15 0 -11 62 -117 97 -164 13 -17 23 -35
23 -41 0 -5 10 -18 22 -29 24 -21 23 -18 -35 73 -21 34 -36 67 -32 72 3 6 -4
15 -15 21 -11 6 -18 15 -15 19 3 5 -2 12 -11 15 -9 3 -14 12 -11 19 4 13 -21
37 -38 36 -5 0 -4 -3 3 -6z"/>
<path d="M1370 769 c0 -4 24 -7 53 -7 33 -1 47 2 37 8 -18 10 -90 9 -90 -1z"/>
<path d="M1492 768 c-9 -4 27 -7 81 -6 54 0 96 2 93 6 -9 8 -153 8 -174 0z"/>
<path d="M235 760 c-149 -41 -189 -102 -127 -197 15 -23 40 -64 56 -90 16 -26
35 -59 43 -72 l15 -23 29 28 c16 15 29 34 29 41 0 8 5 11 10 8 7 -5 10 27 8
96 -2 72 -7 104 -16 107 -9 3 -13 -8 -12 -35 0 -137 -1 -163 -11 -163 -6 0 -8
-9 -4 -20 3 -11 2 -20 -3 -20 -13 0 -64 41 -58 47 3 3 0 10 -5 17 -5 6 -19 22
-30 36 -29 34 -61 109 -57 133 2 11 12 25 23 31 10 6 25 17 33 23 14 14 63 28
130 37 40 6 42 5 42 -19 0 -18 -4 -23 -15 -19 -9 4 -15 0 -15 -10 0 -9 6 -16
13 -16 25 1 47 28 47 59 0 31 -1 31 -47 30 -27 -1 -61 -5 -78 -9z"/>
<path d="M2492 730 c-16 -14 -37 -30 -47 -35 -16 -10 -16 -14 13 -55 63 -94
92 -141 92 -151 0 -5 5 -9 10 -9 6 0 10 -6 10 -14 0 -7 9 -25 20 -39 24 -30
28 -66 6 -48 -11 9 -16 9 -22 0 -4 -8 -3 -9 4 -5 7 4 12 1 12 -8 0 -10 9 -16
23 -16 16 1 33 17 62 63 69 108 67 101 34 143 -16 20 -29 41 -29 45 0 5 -10 9
-22 9 -41 1 -72 34 -72 77 0 21 4 46 8 56 13 29 -65 19 -102 -13z m46 -2 c-3
-7 1 -19 9 -26 7 -8 11 -17 8 -21 -2 -5 5 -26 16 -47 10 -21 20 -37 22 -35 1
2 12 1 25 -3 15 -5 21 -13 18 -22 -5 -12 -2 -12 16 -3 18 9 20 9 15 -4 -3 -9
1 -18 9 -21 16 -6 19 -51 4 -69 -60 -74 -54 -70 -72 -50 -9 10 -18 27 -20 38
-1 11 -13 31 -25 45 -13 14 -23 33 -23 43 0 10 -6 20 -14 23 -12 5 -28 42 -26
60 1 3 -8 14 -20 24 l-22 19 33 31 c35 31 54 39 47 18z"/>
<path d="M2621 737 c-33 -61 20 -128 74 -93 34 23 41 53 18 85 -27 36 -75 40
-92 8z m70 -23 c17 -21 0 -49 -32 -49 -24 0 -36 23 -25 51 7 19 40 18 57 -2z"/>
<path d="M2748 749 c-3 -8 4 -20 16 -27 14 -9 16 -12 4 -8 -14 4 -18 0 -18
-17 0 -16 3 -18 9 -9 4 8 12 13 17 12 17 -3 14 17 -4 40 -15 18 -20 20 -24 9z"/>
<path d="M387 720 c-4 -16 4 -22 48 -36 39 -13 55 -23 59 -39 8 -30 46 -41 46
-14 0 10 -5 19 -12 19 -6 0 -9 3 -5 6 8 8 -54 61 -87 74 -38 14 -43 13 -49
-10z"/>
<path d="M616 660 c-24 -42 -43 -66 -47 -59 -4 6 -12 8 -18 5 -16 -10 -14 -26
4 -26 8 0 15 -5 15 -12 0 -7 14 10 31 38 17 27 35 51 40 52 5 2 9 10 9 18 0 8
7 17 15 20 18 7 20 34 3 34 -7 0 -31 -32 -52 -70z"/>
<path d="M837 723 c-6 -9 112 -7 121 2 3 3 -22 5 -56 5 -33 0 -63 -3 -65 -7z"/>
<path d="M1412 724 c9 -9 441 -12 463 -3 11 4 -90 8 -224 8 -134 1 -242 -2
-239 -5z"/>
<path d="M335 656 c-34 -51 21 -105 69 -69 31 22 33 46 6 73 -27 27 -56 25
-75 -4z m64 -10 c9 -11 10 -20 1 -35 -14 -26 -36 -27 -50 -2 -21 40 21 71 49
37z"/>
<path d="M2764 669 c-5 -9 1 -10 22 -5 27 7 27 6 10 -7 -10 -8 -16 -19 -12
-25 10 -17 19 -15 35 9 11 18 11 23 -1 30 -19 12 -46 11 -54 -2z"/>
<path d="M2912 623 c-43 -91 -63 -124 -72 -118 -6 3 -10 1 -10 -4 0 -44 78 51
94 113 4 17 15 36 24 43 15 11 15 12 1 13 -8 0 -25 -20 -37 -47z"/>
<path d="M2730 643 c0 -10 15 -35 33 -55 17 -20 37 -45 43 -55 7 -10 15 -15
20 -10 4 4 -1 14 -12 21 -10 8 -16 17 -12 21 3 4 -1 15 -10 25 -9 10 -27 30
-39 45 -19 22 -23 24 -23 8z"/>
<path d="M2842 637 c-12 -13 -22 -33 -22 -44 0 -25 25 -49 35 -33 3 5 -1 10
-10 10 -12 0 -15 5 -10 18 4 9 10 25 12 35 3 10 12 16 19 13 8 -3 11 0 7 10
-7 18 -6 18 -31 -9z"/>
<path d="M450 606 c-15 -41 -88 -73 -105 -46 -12 19 -22 10 -18 -15 5 -23 9
-24 72 -24 50 1 70 5 83 18 17 19 9 49 -11 37 -6 -4 -11 0 -11 8 0 9 7 16 15
16 8 0 15 -4 15 -10 0 -5 7 -10 15 -10 25 0 17 18 -15 34 -30 14 -31 14 -40
-8z"/>
<path d="M2400 597 c0 -4 9 -22 19 -41 11 -19 17 -36 15 -39 -3 -2 2 -7 11
-10 18 -8 19 -3 4 26 -15 27 -49 72 -49 64z"/>
<path d="M509 536 c-28 -42 -38 -45 -118 -39 l-61 5 0 -29 c0 -20 -13 -40 -46
-72 -51 -49 -51 -41 5 -136 17 -27 38 -63 47 -80 30 -55 44 -65 93 -65 25 0
41 4 34 8 -6 4 -16 33 -22 66 -6 32 -15 64 -20 70 -18 21 -16 84 2 104 9 10
17 24 17 30 0 6 6 17 13 24 7 7 30 41 52 76 40 66 44 96 4 38z m-73 -81 c9 -8
13 -15 10 -15 -15 0 -22 -6 -34 -30 -16 -28 -24 -58 -24 -81 1 -17 20 -129 29
-166 7 -31 -23 -31 -33 0 -4 12 -10 24 -14 27 -4 3 -29 41 -54 84 l-47 80 35
34 c20 18 34 38 31 43 -4 5 1 9 9 9 9 0 16 7 16 15 0 10 10 15 31 15 17 0 37
-7 45 -15z"/>
<path d="M2740 566 c0 -13 33 -71 44 -78 6 -4 7 -8 3 -8 -4 0 5 -12 20 -26 15
-14 27 -29 26 -32 -1 -4 0 -9 2 -11 2 -2 2 9 -1 25 -3 16 -12 35 -21 42 -9 6
-14 12 -10 12 5 0 2 6 -5 14 -7 8 -17 11 -22 8 -5 -3 -7 2 -3 10 3 9 -3 24
-14 34 -10 9 -19 14 -19 10z"/>
<path d="M2730 455 c-25 -41 -24 -45 10 -34 16 4 19 7 8 8 -24 1 -23 18 2 26
21 7 26 20 11 29 -5 4 -19 -10 -31 -29z"/>
<path d="M2774 428 c-4 -7 -3 -8 4 -4 21 13 13 -12 -15 -45 -15 -17 -28 -39
-29 -47 -2 -8 -6 -18 -11 -21 -5 -3 -19 -27 -33 -53 -14 -28 -33 -49 -46 -52
-12 -3 -24 -15 -27 -27 -5 -20 -5 -20 13 -4 10 9 23 14 28 11 5 -3 15 7 23 22
8 15 16 29 19 32 8 8 110 177 110 183 0 11 -30 15 -36 5z"/>
<path d="M2532 370 c11 -22 24 -40 29 -40 13 0 11 7 -13 45 -31 47 -40 44 -16
-5z"/>
<path d="M2683 378 c-25 -28 -10 -31 21 -5 19 16 22 24 12 24 -9 0 -23 -9 -33
-19z"/>
<path d="M2651 323 c-7 -7 -9 -17 -6 -22 3 -5 -3 -12 -12 -14 -10 -3 -6 -4 9
-4 15 1 26 4 26 7 -2 20 4 30 17 30 8 0 15 4 15 9 0 14 -34 9 -49 -6z"/>
<path d="M2546 248 c-9 -36 -7 -41 9 -24 16 16 20 46 6 46 -5 0 -11 -10 -15
-22z"/>
<path d="M2543 123 c12 -11 75 -14 82 -3 4 6 -11 10 -41 10 -26 0 -44 -3 -41
-7z"/>
</g>
</svg>
