<?xml version="1.0" encoding="UTF-8"?>
<svg id="Layer_1" xmlns="http://www.w3.org/2000/svg" version="1.1" viewBox="0 0 300 246">
  <!-- Generator: Adobe Illustrator 29.1.0, SVG Export Plug-In . SVG Version: 2.1.0 Build 46)  -->
  <defs>
    <style>
      .st0 {
        fill: #fff;
      }
    </style>
  </defs>
  <path class="st0" d="M112.2,3.7c-.6,2.1-1.3,4.7-1.4,5.8-.2,1-2.3,3.4-4.8,5.3-5.7,4.3-6.4,6.1-1.4,3.4,2.2-1.1,4.6-2.2,5.5-2.5C112,15.1,116.3,0,114.5,0s-1.7,1.7-2.3,3.7Z"/>
  <path class="st0" d="M117.2,2.7c0,1.6-.3,4.5-.7,6.5-.7,3.7-.7,3.8,1.9,3.6,2.8-.3,3-.6,4-8.6C123,0,123,0,120.1,0s-3,.3-2.9,2.7Z"/>
  <path class="st0" d="M126.5,5.4c-.8,6-.1,9.6,1,5.8.4-1.2,1.4-2.2,2.1-2.2s1.4-.6,1.4-1.4.3-2.8.6-4.5C132.2.3,132,0,129.7,0s-2.6.5-3.2,5.4Z"/>
  <path class="st0" d="M136,4.4c0,3.6.3,4.4,1.8,4.2,1.2-.2,1.8-1.4,2-4.4C140.1.5,139.9,0,138.1,0s-2.1.6-2.1,4.4Z"/>
  <path class="st0" d="M159.8,5.2c.4,5,1.7,8.7,1.8,5,.1-.9.2-2.2.4-2.7C162.7,4.9,161.9,0,160.8,0s-1.2,1.5-1,5.2Z"/>
  <path class="st0" d="M167.7,3.7c.3,2.1.9,4,1.3,4.3s.9,1.4,1.1,2.4c.2,1.1,1,2.1,1.7,2.2s.9.1.5-.2c-.5-.2-.6-3.1-.5-6.4C172.2.2,172.1,0,169.7,0s-2.5.3-2,3.7Z"/>
  <path class="st0" d="M177,1.9c0,1.1.5,2.3,1,2.6.6.3,1,1.9,1,3.4s.7,3.4,1.6,4.2c1.4,1.1,1.5.6,1-5.2-.4-4.3-.3-5.8.3-4.4.9,1.9,1,1.9,1-.3C183,.4,182.5,0,180,0s-3,.5-3,1.9Z"/>
  <path class="st0" d="M185.4,1.5c.3.8.8,3.6,1.2,6.3.6,4.4,3.6,10.3,4.7,9.2s-.4-4.2-1.6-8.8C188.3,2.8,187.1,0,186.2,0s-1.2.6-.8,1.5Z"/>
  <path class="st0" d="M170,19.4c0,5.5.1,5.8,1.5,4,1.7-2.3,1.9-4.4.4-4.4s-.9-.6-.6-1.3c.3-.8.1-2-.4-2.8-.6-.9-.9.7-.9,4.5Z"/>
  <path class="st0" d="M160.8,22.1c-.2,2.2,0,4.3.4,4.5.4.3.8,1.5.8,2.7,0,1.7-.2,1.9-.9.8-.6-.9-1,.9-1.3,5.5-.2,3.8-.3,7.1-.2,7.2.2.2,1.1-1.3,2.1-3.5,1.7-3.6,2.1-8.2,1-12.8-.2-1.1-.1-2.5.4-3.1.9-1.1.1-5.4-1.1-5.4s-1,1.8-1.2,4.1Z"/>
  <path class="st0" d="M127,20.2c0,.9.9,2.6,1.9,3.9,1.9,2.3,2,2.3,1.8.4-.1-2.6-3.7-6.7-3.7-4.3Z"/>
  <path class="st0" d="M102.2,24.7c.6.7,1.7,1.3,2.4,1.3s1.4.3,1.4.6c0,.7-20.2,29.6-54.5,77.9C8.5,165.1,3.3,172.5,2.2,174.7c-2.1,4-1.5,13.8,1.3,19.3,5.6,11.1,24.9,41.3,28.5,44.5,2.7,2.5,8.8,4.4,14.2,4.5,3.6,0,5.3-.6,7.7-2.5,3.7-3.1,4.8-6.6,5.5-17.4.5-8.2.7-8.5,8.7-22.8,4.6-8.1,9.3-15.2,10.8-16.1,2.2-1.5,8.1-1.8,49.6-2.4,25.8-.4,51.1-1.1,56-1.7,9.9-1.2,10.7-1.7,15.3-10.5l2.4-4.4-6.6-15.8c-3.6-8.6-6.3-16-6-16.3.4-.3.9-.1,1.1.6.6,1.7,8.1,13.8,22.9,37.3,21.6,34,23.6,37,24.4,37,1.8,0,2.1-2.1.5-3.6-1.5-1.5-1.5-1.8.2-3.7s1.7-1.9-.3-1.3c-1.8.5-2.6,0-4.5-3.1-1.3-2.1-2.7-4-3.1-4.1-.4-.2-.8-.8-.8-1.4s-.9-2.1-2-3.5c-2.3-2.9-2.6-4.8-.7-3.7.6.4.9.4.5-.1-.4-.4-1.8-1.3-3-1.9-1.3-.7-2.3-1.8-2.3-2.5s-1.1-2.6-2.5-4.1-3.4-4.5-4.5-6.6-2.2-4.1-2.5-4.4c-1-1-7-11.1-7-11.8s-1.1-1.9-2.5-3.4-2.5-3.2-2.5-3.7c0-2-7.3-13.1-8.6-13.1s-1.8-.8-2.3-1.8c-.8-1.3-1.1-1.4-1.1-.2-.1,1.7-6-10.6-6-12.4s.5-.4,1,.4,1,1.1,1,.6-1.1-2.2-2.5-3.8-2.3-3.4-1.9-3.9c.3-.5.2-.9-.3-.9s-1.9-1.8-3.2-4c-1.3-2.1-3.2-4.1-4.3-4.3-1.2-.3-1.6-1.1-1.2-2.1.3-.9.2-1.6-.4-1.6s-1.5-1.3-2.2-2.9c-.6-1.6-1.8-3.2-2.7-3.5-1-.4-1.2-1.3-.7-2.8.3-1.3.3-2-.1-1.6-.9.8-3.3-2-9.2-11-3.5-5.4-4-6.7-3-8.3,1.4-2.2,2.7-2.5,2.7-.5s.9,1.6,1.9,1.9c1.5.3,1.8.1,1.4-1.2-.5-1.4-.3-1.4,1.3.2,1.5,1.4,1.6,1.9.5,2.6s-1.1,1,.1,1.7c1.4.8,2.2,2.2,6.4,10.6s2.7,4.3,4.1,5.6c1.3,1.3,2,2.8,1.7,3.4-.5.7-.2.8.6.3,1-.6,1.2-.3.8,1.3-.4,1.4-.2,2,.5,1.5.6-.4.8,0,.4,1-.4,1.1-.2,1.4.9,1s1.5,0,1.2,1.3c-.2,1.2.2,1.8,1.1,1.6.8-.2,1.1.3.8,1.2-.4.9-.1,1.5.6,1.3.7-.1,1.1.4.9,1.1-.1.8,1.2,3,2.9,5,1.9,2.1,2.7,3.8,2,4-.6.2-1.1.8-1.1,1.3s.6.6,1.3.3c.8-.3,3.7,3.2,7.8,9.7,3.5,5.5,6.9,10.7,7.6,11.4s.9,1.5,0,2.4-.8,1.1.2,1.1,1,.7.6,2c-.4,1.1-.2,2,.4,2s1.1-1,1.1-2.3c.1-1.6.8-.8,2.5,2.8,1.3,2.7,2.4,5.8,2.4,6.7.1,1,.6,1.8,1.1,1.8s1,.6.8,1.2c-.3,1.8,2.4,5.8,4,5.8s6.1,5.1,6.1,7-.4.5-1-.8c-.9-2.4-2.9-2.2-2.9.4s.5,1.2,1,.9c.6-.3,1-.3,1,.2s1,1.9,2.1,3.3l2,2.5-.6-2.5c-.5-1.9,0-1.6,1.9,1.4,1.3,2.1,2.2,4.5,1.9,5.4-.4,1-.1,1.3.8,1s5.9,4.9,5.9,6.7,5.4,8.9,6.5,9.7c.5.4.6,1,.3,1.4-.4.4.2,2,1.3,3.6,1.2,1.6,1.8,3.5,1.5,4.3s.3,1.7,1.5,2c1.1.4,1.8,1.2,1.6,1.9-.3.7.3,1.9,1.4,2.7,2.4,1.7,2.4,2.6-.2,4-1.5.7-2.4.8-3.2,0-1.4-1.4-1.6-5.4-.3-6.3.7-.5.5-.8-.5-.8-3.2,0-4.3,2.7-3,7,1.2,4.2.9,8.1-1.5,16.4-.8,2.7-1.4,7.2-1.4,9.9v4.9l12.3-.3c17.1-.5,16.9-.4,32.3-25.6,16.4-26.7,17.2-28.4,17.5-37,.3-6.3,0-7.6-2.1-10.5-6-8.2-72.9-102.1-84.9-119.1-12.4-17.6-18.4-27.4-17.6-28.7.2-.3-.8-.6-2.1-.6-1.5-.1-2.4.4-2.4,1.3s8.8,14.7,12.2,18.8c1.7,2,9.7,13.4,18.2,26,4.9,7.1,10.8,15.6,13.2,18.8,2.4,3.1,4.5,6.2,4.7,6.8.1.7,1.5,2.6,3,4.3s4.3,5.3,6.2,8.1c1.9,2.7,5.7,8.1,8.5,12,2.7,3.8,5.8,8.1,6.7,9.5,6.4,9.2,32,44.7,33,45.8.8.8,1.3,3.8,1.3,7.3,0,5.6-.4,6.8-6.5,16.9-6,10.2-15.3,24.9-19.6,31.2-1.1,1.5-1.9,3.1-1.9,3.6s-1,1.8-2.3,3c-2,1.9-3.5,2.2-11,2.2s-9.3.4-12.2,2.1c-2,1.2-3.8,1.9-4.1,1.6-1-1,1.7-8.8,3.2-9.4,1.1-.4,1.2-.8.4-1.3s-.8-1.4,0-3.4c.5-1.5,1-4.5,1-6.8s.4-4.1,2-4.5c1.1-.3,2-.9,2-1.4s.7-.6,1.5-.3c1.1.5,1.3,1,.5,1.9-.6.7-.7,2.1-.3,3,.4,1.3.3,1.6-.5,1.1-.7-.4-1.2-.2-1.2.5s-1,2.3-2.2,3.6c-1.8,2-1.9,2.3-.5,2.3,2,0,2.2,1.1.5,2.8s-.9,1.2.2,1.2,1.1.3.3,1.1c-1.2,1.2-.7,3.9.7,3.9s1.3-2.8,2-6.2c.6-3.5,1.5-6.8,2-7.3.4-.6,1-2.7,1.4-4.8.7-3.9-1.7-10.3-5.3-14.5-.9-1-2.5-3.3-3.5-5.2s-3.6-6-5.6-9c-2.1-3.1-4-6.6-4.4-7.8s-1.1-2.2-1.6-2.2-1.2-1-1.6-2.3c-.4-1.2-2-3.8-3.5-5.8-1.6-2-2.9-3.9-2.9-4.2s-1.9-3.5-4.1-7.2c-2.9-4.6-4.5-6.3-5.3-5.6-.8.6-1.7.6-2.6,0s-1.1-.9.4-.7c2.4.4,3.1-1.5,1.4-3.3-.7-.8-1.9-2.5-2.6-3.9-1.8-3.7-14.9-25.4-21.4-35.3-1.5-2.3-3.7-5.8-4.8-7.7s-3.3-5.4-4.8-7.7c-3.7-5.7-17.7-28.4-22.1-35.7l-3.6-6-.8,5.5c-1.2,7.5-1.4,7.9-3.6,7.9s-3.7,2.3-13.7,17.2c-2.5,3.8-4.9,6.8-5.4,6.8s-.6.9-.3,1.9c.3,1.3-.2,2.4-1.6,3.3-1.2.7-2.1,2-2.1,3s-.4,1.8-.8,2c-1.2.5-5.2,6.5-5.2,7.8s-1.9,3.1-4.2,5.6c-2.2,2.4-4.9,6.1-5.8,8.2-1,2.2-2.5,4.2-3.5,4.5-2.3.9-2.7.9-2-.2.3-.5.1-1.2-.5-1.6s-.8-1.1-.4-1.6c.3-.5.9-.7,1.3-.5.4.3,1.5-1.2,2.5-3.2s2.5-5,3.3-6.5,2-3.9,2.7-5.2c.7-1.4,1.6-2.2,1.9-1.8.4.3.7-.1.7-1.1s.5-1.4,1.2-1c.6.4.8.3.5-.3-.6-1,3.7-8.1,6-9.8.8-.6,1.5-1.7,1.7-2.5.4-2.4,2.9-7,3.6-7s1.3-1.5,2.1-3.3c1.4-3.6,6.9-12,8.1-12.5.4-.2,1.7-2,3-4q2.2-3.6,2.9-1.2c.6,2,.7,1.7.7-1.5s-.3-5.1-.7-6.5c-.7-2.4-.7-2.3-3.1,1.5-3.2,5.4-25.7,42.1-28.6,46.7-12.4,19.7-15.4,24.7-15.4,25.8s11,1,32.6,1,32.8-.1,34-1.7c1.3-1.7,1.5-1.7,2.7-.1,1.4,1.8,2.7,1.4,2.7-.8s-.9-1.4-2-1.7c-1.6-.4-1.9-1.2-1.6-4.3.2-2.2.4-5.7.5-7.9.2-3,.4-3.5,1-2s1,.6,1.5-3.3c1.2-9.1,1.9-8.2,12,15.8,4.3,10.2,9.9,23.2,12.4,28.9,3.7,8.4,4.3,10.6,3.4,12-.7.9-2.6,3.7-4.3,6.3l-3.1,4.8-60.8-.5-60.9-.5-1.8,3.8c-.9,2-2.1,4.1-2.6,4.7-.4.5-1.7,2.3-2.7,4-1.1,1.6-4,6.1-6.5,10-9.1,14-9,13.7-7,22.9,1,4.5,2.1,8.8,2.5,9.6s1,2.8,1.4,4.4l.7,2.9-8.6-.5c-4.8-.2-9-.9-9.3-1.4-.4-.6-1.8-1.8-3.2-2.8l-2.5-1.7,3,.6c2.2.4,2.5.3,1-.3-1.1-.5-2-1.5-2-2.3-.1-.8-.6-1.3-1.3-1.1-.9.1-1.1-.6-.6-2.5.4-2.1.3-2.4-.5-1.3-.5.8-1.1,1.2-1.3,1-.2-.3-1.7-2.3-3.3-4.4-1.7-2.2-4.1-5.9-5.5-8.3-1.4-2.3-4.8-8-7.6-12.5-7.8-12.6-8.5-14.2-8.3-19.8.2-5.4,0-5.1,16.4-28,26.7-37.4,45.4-63.8,52.3-73.6,4.6-6.6,15.2-21.7,23.7-33.8,8.5-12,15.5-22.2,15.5-22.6s-2.2-.7-4.9-.6c-3.8.1-4.7.4-3.9,1.3ZM159.5,86.5c8.6,13.9,9.3,16.1,7.5,21.1-.6,1.5-1.4,6.5-1.9,11.2-.5,4.6-1.4,8.8-2.1,9.2-2.2,1.3-50,2.9-50,1.6s2.8-6.9,6-11.1c2.1-2.7,7.7-11.3,12.5-19,8.6-13.8,18.4-27.9,19.1-27.3.2.2,4.2,6.6,8.9,14.3ZM74.9,180.9c1.1.7,1,1.2-.5,2.9-2.9,3.1-3.7,4.4-6.2,9.4s-3.8,6.8-5.5,9.5c-1.8,2.6-4.1,6.8-5.1,9.3-2.7,6.1-3,6.3-5.5,4.2l-2.3-1.8,3.2-4.7c1.7-2.6,3.7-4.7,4.3-4.8.9,0,.9-.2,0-.6-1.9-.7.8-3.2,2.7-2.5,1.2.5,1.3.3.2-1-1.6-2-.6-4.7,2.2-5.8,1.9-.8,1.9-.9.2-.9-1.5-.1-1.6-.4-.6-1.6.7-.8,1.6-1.2,2.1-.9s.9-.4.9-1.5.9-3,1.9-4,1.7-2.2,1.4-2.5c-.9-.9,1.8-3.6,3.6-3.6s2.2.4,3,.9ZM54.1,220.7c.1,1.7.2,1.7.6,0,.2-.9.9-1.7,1.4-1.7,1.4,0,1.1,1.6-.6,3s-2.1,3.5-.5,2.5c.6-.3,1,0,1,.8s-.7,1.4-1.5,1.4c-1.6,0-2.8-2.4-1.9-3.8.3-.6,0-1.6-.6-2.4-1-1.2-.9-1.5.4-1.5s1.7.8,1.7,1.7ZM56.1,229c1.3,0,1.1,1.8-.3,3.4-1,1.1-1.5.8-2.5-1.2-1.7-3.2-1.6-3.5.3-2.8.9.3,2,.6,2.5.6Z"/>
  <path class="st0" d="M174.7,23.7c-.4.3-.7,1.5-.7,2.5s-.4,1.8-.8,1.8c-.8,0-14.2,21.2-14.2,22.5s3.3,5.4,4.2,4.9c.5-.3.4-1.2-.3-2-.9-1.2-.5-1.4,2.4-1.4s3.7.5,4,1.7c.4,1.7.5,1.7.6,0,0-1,.5-1.6,1-1.2.5.3,1.2.1,1.6-.5s-1.6-1-5.4-1-6.1-.4-6.1-1,2.4-1,5.3-1c4.7-.1,5-.2,3.4-1.5-1.5-1-1.7-2.1-1.2-4.4.4-1.7,1.1-2.9,1.6-2.5.5.3,1.2-.3,1.6-1.3.3-1,1.5-2.8,2.5-3.9,1.7-1.9,1.8-2.5.7-4.2-1.8-2.9-.4-3.9,2.2-1.6l2.1,1.9-.7-3.3c-.6-2.7-.4-3.2,1.3-3.2s2.6.8,3.4,1.7c3.3,4,9.8,15.4,9.3,16.4-.4.5-.1.8.5.7.6-.2,1.8.6,2.6,1.7,1.3,2,1.2,2.1-3.1,2.3-4.2.1-4.4.1-4.7-3.1l-.3-3.2-.6,3.7-.5,3.8h6.2c3.5,0,6.6.4,6.9,1,.4.6-1,1-3.6,1s-3.9.3-3.6.7c.4.3,2,.6,3.7.5,2.2,0,3.5.7,5.2,3.1,1.2,1.8,2.6,3.3,3,3.5s.8,1,.8,1.8.5,1.4,1.2,1.4,0,1-1.3,2.2c-1.6,1.4-1.8,1.9-.7,1.5,1-.3,2-.2,2.3.4.4.5.1.8-.6.7-2.4-.6-1.9,2.2.6,2.8,1.8.4,2.3,1,1.6,1.8-.6.7-.6,1.8-.2,2.5.7,1.1,1.1.9,2.1-.8.9-1.8.8-2.8-.9-5.6-1.1-2-1.6-3.7-1-4,.5-.4.9-1,.9-1.4,0-.7-3.7-5.8-7-9.8-.5-.7-1-1.7-1-2.3s-1.5-3.1-3.2-5.5c-1.8-2.4-6-8.2-9.2-12.9-5.7-8.1-6.2-8.6-9.6-8.6s-4,.3-4.3.7Z"/>
  <path class="st0" d="M116.1,26.8c-.7,1.6-2.8,4.5-4.7,6.4-2.7,2.8-3.1,3.7-1.9,4.2.9.3,1.5,0,1.5-.8s1.1-1.8,2.4-2.6c1.4-.7,2.2-1.8,1.9-2.6s.2-1.7,1.1-2,1.6-1.2,1.6-2,1-1.4,2.6-1.4,2.3-.4,1.9-1c-1.3-2.2-5.2-1-6.4,1.8Z"/>
  <path class="st0" d="M127,29.8c0,1.2.6,2.5,1.3,2.9s3.3,4.1,5.7,8c2.5,4,4.8,7.3,5.2,7.3,1.3,0,1-.5-4.2-8.4-2.7-4.2-5-8-5-8.5s-.7-1.4-1.5-2.1c-1.3-1-1.5-.9-1.5.8Z"/>
  <path class="st0" d="M135.6,30.5c-.6,2.5,1.6,8.9,3.5,10.1,1.2.7,1.1-4.7-.1-6.6-.7-1.1-1-1.1-1-.2s-.5,1-1.1.7c-.6-.4-.7-1.9-.4-3.6.8-3.6,0-3.9-.9-.4Z"/>
  <path class="st0" d="M177.5,34.9c-.3.7-.4,1.6-.1,1.8.6.7,4.6-1.6,4.6-2.7s-3.9-.7-4.5.9Z"/>
  <path class="st0" d="M105.8,39.8c-.9.9-5.5,7.5-10.3,14.7-4.9,7.1-10.1,14.8-11.7,17-3,4.1-11.8,16.6-14,19.9-.7,1-3.9,5.5-7,10-3.1,4.4-7.9,11.2-10.5,14.9-2.6,3.8-5.2,7.4-5.8,8.1-1.8,2.2-7.5,10.7-7.5,11.2s-1.2,2.1-2.8,3.9c-3,3.6-3.9,4.9-8.2,12-1.8,2.9-2.1,3.8-.8,2.1,6.4-8.2,5.8-7.9,11.8-6.6,3,.6,6.2,1.1,7,1.2s1.7.4,2,.8c.3.3,2.6,1.6,5.1,2.8,2.5,1.3,6.6,4.3,9,6.7,3.7,3.7,5,4.5,8.2,4.5s3.7-.5,3.7-1.3c0-2.2-11.1-13.3-15.8-15.8-3.4-1.9-4.5-2.1-5.1-1-.6.9-1.1,1-1.5.2-.4-.6-.4-1.1.1-1.2.4,0-.3-.5-1.7-1.1s-3.3-1-4.2-.9c-1,.1-1.8-.3-1.8-.9s-.5-.8-1.1-.5c-.7.5-.4,1.4.8,2.8q1.7,2,0,1.4c-1-.4-2.2-.7-2.7-.7s-1-.9-1.3-2,0-2,.6-2,.6-.4-.3-1c-1.1-.7-.8-1.1,1.5-2s2.6-1.3,1.5-2c-1.3-.8-1.3-1,.2-1s4.8-4.4,5.8-7.5c.1-.6,1.1-1.6,2.2-2.3,1-.7,1.5-1.8,1.2-2.4-.4-.7-.2-.8.4-.4,1.2.7,1.6-.5,1.3-3.2-.1-.7.7-1.6,1.8-2,2.6-.9,8.8-10.3,6.3-9.6-1.3.4-1.2.2.2-.7,3.4-2.1,6.7-6.2,6.2-7.6-.3-.7.4-1.8,1.5-2.4s1.8-1.7,1.5-2.4c-.3-.8-.1-1.7.4-2,.4-.3,1,0,1.2.6s1-.2,1.8-1.8c.8-1.5,2.1-3.3,2.9-3.9s1.1-1.6.7-2.2c-.4-.7.3-1.7,1.9-2.4,1.4-.6,2.4-1.7,2.1-2.4s.3-1.5,1.2-1.9c1.4-.5,1.4-.7.2-1.5-1.1-.7-.8-1.1,1.3-2.1,1.5-.7,2.7-1.7,2.7-2.2s2.1-3.7,4.6-6.9,4.2-6.2,3.9-6.8c-.3-.5,0-1,.9-1s2-1.3,2.7-2.9,1.7-2.7,2.1-2.5c.4.3.8-.7.8-2.1s.4-2.4,1-2c.5.3.7,0,.4-.8s.2-2,1.1-2.7c.8-.7,1.5-1.8,1.5-2.5s.5-1.5,1.2-1.7c.8-.3.9-.6.1-1.1-.6-.4-1.7.1-2.5,1.1ZM56.3,148.4c2.1,1.6,2.2,2.6.2,2.6s-1.4-.6-1.2-1.3c.1-.6-.6-1.1-1.5-.9-1,.2-1.8-.2-1.8-.8,0-1.4,2.1-1.2,4.3.4Z"/>
  <path class="st0" d="M150.9,39.8c-.4,7.9,0,11.4,1.1,10.7.5-.3.7-3.1.5-6.2-.4-5.6-1.4-8.4-1.6-4.5Z"/>
  <path class="st0" d="M173.7,40.6c-2.4,3.2-1.9,6.8,1,7.2,1.8.3,2.1,0,1.7-1.3-.6-1.3-.8-1.4-1.5-.3-.6.9-.9.6-.9-1s.8-2.6,2-3c1.7-.6,1.8-1,.8-2.4-1.2-1.6-1.5-1.5-3.1.8Z"/>
  <path class="st0" d="M117.6,42.7c-1.3,1.3-.5,2.5.9,1.3s1.9-.7,1.6,1.3c-.1.5.3.6.8.3.5-.4,1.4.2,2,1.1,1.3,2.4,2.3,1.1,1.3-1.7-.8-2.2-5.2-3.7-6.6-2.3Z"/>
  <path class="st0" d="M108.2,46.9c-1.2,2.1-1.8,4.2-1.4,4.6.4.5.2.5-.4.2-.7-.4-4.9,4.8-10.5,12.9-5.2,7.4-12,17.2-15.1,21.7-3.2,4.5-6.3,9-7,10.1-.7,1-3.7,5-6.6,8.9-3.3,4.5-4.8,7.3-4.1,7.6.7.2,2.1-.7,3.1-2s3.7-4.8,5.9-7.7l3.9-5.2h6.3c5.9,0,6.3-.2,8.3-3.3,6.5-9.7,16-24.3,16.4-25.2,1.3-2.6,10.5-16,11.2-16.3,1.1-.5-2-6.2-3.3-6.2s-.9,1.6.6,5.3c.6,1.3.3,1.6-.9,1.1-.9-.3-1.6-1.1-1.6-1.8s-.9.2-1.9,1.8c-1.1,1.7-1.7,3.4-1.4,3.9s1.2-.3,1.9-1.9l1.2-2.9v2.9c-.2,1.5-.8,3.1-1.5,3.3-.7.3-1.3,1.3-1.3,2.2s-.9,2.7-2,4.1c-2.2,2.8-2.5,2.4-1-1.4.6-1.7.6-2.7-.2-3.2-.7-.4-.8-.3-.4.4s.3,1.2-.2,1.2c-1.5,0-6.3,8-5.6,9.3.4.7.4.9-.1.5-1-1-7.8,7.9-7,9.2,1.1,1.7,3.5,1.2,2.8-.6-.3-1,0-2.2.8-2.8s1.4-1.7,1.4-2.5,1-1.7,2.3-2.2c1.6-.6,2.2-.5,2.2.5s-.7,1.7-1.6,2c-.8.3-1.3.9-1.1,1.3.6.9-1.9,3.4-2.6,2.7s-.4.3-.3,1.3c0,1.2-.6,1.8-1.9,1.9-1.1.1-3.1.6-4.5,1.1-1.4.6-2.8.9-3.2.6-.5-.2-.8.3-.8,1.1s.9,1.6,2.1,1.6,1.7-.5,1.4-1c-.3-.6,0-1,.9-1s1.6-.5,1.8-1.2c.3-.8.7-.8,1.1-.2.9,1.6-5.9,11.1-8.5,11.8-6.9,1.8-8.5-.7-3.6-5.6s2.4-2.9,2.2-3.1c-.3-.3.6-1.4,2-2.5,1.5-1.1,2.6-2.7,2.6-3.6s.6-1.6,1.4-1.6,2.1-1.5,3-3.4c.8-1.8,2.2-3.9,3.1-4.6.8-.7,1.5-1.6,1.5-2.1s1.8-3.6,4-6.8,4-6.2,4-6.6,1.6-2.6,3.5-5c2.2-2.7,3.3-4.8,2.9-5.9-.9-2.4-1.8-2-4.2,2.3ZM106,68c0,.5-.9,1.4-2,2-1.5.8-2,.8-2-.3s.3-1.7.7-2c1-1,3.3-.8,3.3.3Z"/>
  <path class="st0" d="M130.5,50c-.4.6,1.2,1,3.9,1,4.3,0,4.5.1,3.4,1.9-.7,1.2-2,1.8-3.5,1.5-2.5-.5-3,.5-1.2,2.3s.6,1.7-.8,3.2c-2.9,3.4-10.3,16.9-10.3,18.8s2.4-1.7,6.4-8.5c2.5-4.2,6.3-10.1,8.5-13.1,2.3-3,4.1-6.1,4.1-6.8,0-1.6-9.5-1.9-10.5-.3Z"/>
  <path class="st0" d="M165.4,59.1c.1,1.7.7,3.4,1.3,3.7.5.4,1.8,2.2,2.7,3.9.9,1.8,2.8,4.9,4.2,7,2.1,3,2.5,3.2,1.9,1.3-.4-1.4-1.4-3.5-2.2-4.8s-1.2-3.1-.9-3.9c.5-1.3.4-1.4-.9-.3-1.6,1.4-1.8,1.1-1.9-4-.1-1.8-.6-2.5-1.9-2.3-1.2,0-1.6-.4-1.3-1.3.3-.7.1-1.6-.3-1.9-.5-.3-.8.9-.7,2.6Z"/>
  <path class="st0" d="M210,64.9c0,.7,1.9,3.8,4.3,6.9,2.3,3.1,5.6,7.7,7.2,10.2,1.7,2.5,3.4,4.8,3.9,5.1.4.4,1,4.2,1.3,8.5.3,4.4,1.1,8.8,1.9,9.9.7,1.1,3.6,4.9,6.4,8.5,2.7,3.5,5,7.3,5,8.4q0,2-1.5,0c-.8-1-1.5-1.5-1.5-1,0,1.7,3.2,4.5,4.6,3.9.8-.3,1.4,0,1.4.6s-.5,1.1-1,1.1c-1.5,0,1.2,4.9,4.6,8.5,1.6,1.6,2.7,3.6,2.6,4.3-.2.9.5,1.1,2.5.6,3.6-.9,4.2-1.4,1.5-1.4s-2.2-.5-2.2-1.1-.6-1.7-1.4-2.5c-1.1-1-1.5-1.1-1.9-.1-.2.6-1-.7-1.6-3.1-.7-2.4-1.5-5-1.8-5.8-.4-1,.3-1.4,2.5-1.4,4.3,0,6.2.9,6.2,3s.9,2.2,2.1,2.5c1.5.5,1.9,1.3,1.6,2.7-.6,2.1,1.1,5.8,2.7,5.8s.1-.9-.9-2-1.3-2-.8-2,1.8,1.1,2.7,2.4c1.5,2.3,1.4,2.5-.6,2.8-2.2.3-3.8,2.8-1.8,2.8s.8-.5.5-1c-.3-.6.1-1,.9-1,1.8,0,5.7,4,5.1,5s4.5,2.3,5.3,1.5c.4-.3.2-.9-.4-1.3-.5-.4-3.6-4.3-6.7-8.7s-6.6-9.1-7.7-10.5-2-2.7-2-3-2.7-.3-6-.2c-3.9.3-6,0-6-.7s2.2-1.1,5.5-1.1h5.5l-3.7-5.3c-2-2.8-5.5-7.7-7.8-10.7s-6.5-8.9-9.3-13c-9.6-14-19.1-27.3-20.2-28.4s-1-.6-1,.3ZM235,102.7c0,.8-.5,2.4-1.1,3.6-.9,1.8-.9,2,.2.9,1.8-1.6,2.9-1.5,2.9.3s.5,1.5,1,1.5,1.9.9,2.9,1.9c1.7,1.7,1.8,2.2.5,3.8-1.3,1.7-1.5,1.7-3.4-.7-1.1-1.4-2.9-3.4-4-4.5-1.1-1.2-2-2.5-2-3s-.9-1.6-2-2.3c-2.6-1.6-2.5-3,.3-3.4,3-.5,4.7.1,4.7,1.9ZM244.5,116c.3.6,0,1.7-.9,2.5-1.7,1.7-3.1.4-2.2-2,.6-1.7,2.2-2,3.1-.5Z"/>
  <path class="st0" d="M212,73.7c0,.7.4,1.3.9,1.3s.7,1.2.5,2.7c-.2,1.6-.1,2,.2,1.1.5-1.5.9-1.4,3,.9,1.4,1.5,2.3,3.2,2,3.8-.2.6.2,1.2.9,1.2,1.2,0,1.2-.5,0-2.6-2-3.7-7.4-9.8-7.5-8.4Z"/>
  <path class="st0" d="M119.2,81.2c-.7.7-1.2,2.1-1.1,3.2,0,2,.1,2,1.1-.2.6-1.2,1.5-2.2,2-2.2s.8-.5.8-1c0-1.4-1.3-1.3-2.8.2Z"/>
  <path class="st0" d="M217.4,87.1c-.4.7-.3.9.4.5,1.9-1.2,2.6,1.7.7,3.1-1.1.7-1.3,1.3-.7,1.3s1.2.7,1.2,1.5.6,1.5,1.4,1.5c1.7,0,2.5-3.9,1.5-6.6-.4-1-.8-1.5-.8-1-.1.5-.7.3-1.5-.3-1.1-.9-1.6-.9-2.2,0Z"/>
  <path class="st0" d="M187,95.7c0,.7.5,1.3,1,1.3s1,.6,1,1.2c0,1.4,4.8,9.1,7.4,12,.9,1,1.6,2.5,1.6,3.3s.5,1.5,1,1.5c1.4,0,1.3-.5-.9-4.5-1-1.9-2.1-3.2-2.5-2.8s-.6,0-.6-.9-.9-2.3-2-3.3-2-2.4-2-3c0-1.7-3.9-6.3-4-4.8Z"/>
  <path class="st0" d="M108.7,98.6c-1,1.3-1.7,3-1.5,3.6s1.4-.5,2.6-2.5c2.4-4.2,1.7-4.9-1.1-1.1Z"/>
  <path class="st0" d="M220,97c-.9.6-1,1-.3,1s1.1,1,1.1,2.2c-.4,6.5.3,17.8,1.1,17.8s.5-20.9-.2-21.6c-.1-.2-.9.1-1.7.6Z"/>
  <path class="st0" d="M224.8,109.5c-.4.4-.3,1.6.3,2.7.5,1,.7,2.2.4,2.7s.3,1.7,1.2,2.7c1,1,1.8,2.1,1.8,2.6s1.1,1.4,2.4,2.1c1.4.7,2.6,1.9,2.8,2.7.4,1.3.3,1.3-.7,0-.9-1.3-1.1-1.2-.8.5.3,1.3,1,1.9,2.3,1.7,1.5-.2,1.6,0,.7.6-1.1.7.2,3.1,5.5,10.3,4.5,6.2,6.9,8.7,7.1,7.6.2-1,.8-1.4,1.4-1.1.5.4-1.4-2.8-4.2-7-2.9-4.2-5.7-7.6-6.2-7.6s-.7-.3-.4-.8c.7-1.1-6.2-10.2-7.5-9.9-.6.1-1.4-.4-1.7-1.2s0-1.1.7-.7c.7.5.9.1.5-.9-.4-.9-.9-1.3-1.2-1s-1.2-1.1-2.1-3.1-1.9-3.2-2.3-2.9Z"/>
  <path class="st0" d="M58.3,118.7c-1.5,2.1-3.6,4.7-4.5,5.7-1,1.1-1.8,2.5-1.8,3.2s-.7,1.7-1.5,2.4c-1.8,1.5-.6,3.5,2.5,4.3,1.3.3,1.7.1,1.3-.9-.3-.8-.9-1.4-1.4-1.4s-.9-.7-.9-1.5.6-1.2,1.3-1c.6.3,1.8-.4,2.5-1.5.7-1.2.8-2,.2-2s-1,.4-1,1-.5,1-1.1,1-.8-.5.1-1.5c.7-.8,1.9-1.5,2.6-1.5s1.4-1,1.4-2.4.4-2.8,1-3.1c.6-.4.7.1.3,1.2-.6,1.7-.5,1.7,1.5-.1,1.2-1,1.9-2.2,1.7-2.7-.3-.4.3-1.2,1.2-1.8,1.6-.9,1.6-1-.4-1.1-1.4,0-3.2,1.4-5,3.7Z"/>
  <path class="st0" d="M200.2,116.7c1.6,3.6,5.3,8.4,5.6,7.4.4-1.3-3.8-8.1-5.1-8.1s-.7.3-.5.7Z"/>
  <path class="st0" d="M99.5,119.8c-3.4,4.5-4.4,7.8-3.4,10.9l.9,2.8-.4-2.9c-.3-2,.6-4.5,2.6-7.8,3.3-5.4,3.5-7.2.3-3Z"/>
  <path class="st0" d="M224,120.6c0,.9,1,2.5,2.1,3.5,1.3,1.1,2,2.6,1.6,3.8-.3,1.3,0,1.8,1.2,1.6,1-.1,1.8.7,2.2,2.4.3,1.4,1,2.5,1.7,2.3.7-.1,1.2.7,1.2,1.8,0,2,.8,3.3,4.1,6.8.9.9,1.9,2.6,2.1,3.7s1.1,1.9,2,1.9c1.1-.1,1.5.4,1.1,1.5-.3,1.1-.1,1,.8-.3.9-1.6.9-2.1-.3-3s-2.3-2.6-3.2-4.4-2.4-3.6-3.2-3.9c-.7-.3-1.4-1.1-1.4-1.8s-2.2-4.2-5-7.9c-2.7-3.7-5-7.1-5-7.6s-.4-1.2-1-1.5c-.5-.3-1,.1-1,1.1Z"/>
  <path class="st0" d="M206.7,125.7c-.3.4.6,2.4,1.9,4.3s2.4,2.9,2.4,2.2c0-1.8-3.7-7.5-4.3-6.5Z"/>
  <path class="st0" d="M46.7,134.8c-2,2.2-2.1,3.2-.4,3.2s2.5.7,4.1,1.5c1.5.8,3.3,1.2,3.8.9.6-.4-.4-1.3-2.2-2.2s-2.7-1.8-2-2.2c.8-.5.7-1-.3-1.8-1.1-.9-1.8-.8-3,.6Z"/>
  <path class="st0" d="M104.3,135.6c.7.8,8.7.7,9.5,0,.3-.3-1.9-.6-4.8-.6s-5.1.3-4.7.6Z"/>
  <path class="st0" d="M61.7,141.7c-.7,1.1,2.8,5.3,4.4,5.3s.8-.4.5-.9c-.4-.5,0-1.2.6-1.5.7-.3.3-.3-1,0-1.7.4-2.4,0-3-1.7-.5-1.2-1.2-1.8-1.5-1.2Z"/>
  <path class="st0" d="M213.4,142.8c.1,1.2.8,2.8,1.4,3.4s1.2,1.6,1.2,2,.9,1.8,1.9,3c1.1,1.1,1.7,2.6,1.4,3.4s.1,1.4,1.1,1.4,1.6.8,1.6,2,.4,2,.9,2,1.3.9,1.6,2c.4,1.1,1.1,1.8,1.6,1.5.5-.4-.7-3.1-2.6-6.1s-3.5-5.8-3.5-6.3-1.4-2.2-3-3.9c-1.7-1.8-3-3.4-2.9-3.7,0-.3-.2-1.1-.5-1.8-.2-.6-.4-.2-.2,1.1Z"/>
  <path class="st0" d="M126.4,143.8c-1.1.8-1.2,3.7-.1,4.8s.7-.5.7-2v-2.6l2.7,1.7c1.5,1,2.4,1.2,2,.6-1.2-1.9-4.2-3.3-5.3-2.5Z"/>
  <path class="st0" d="M252.5,145.7c-4.4,1.1-8.5,7-8.5,12.3s1.1,4.1,4,7c4.4,4.4,7.9,5.1,12.8,2.6,6.2-3.2,8.4-9.2,5.7-15-2.5-5.3-8.6-8.2-14-6.9ZM260,148.5c1.6.8,3.7,3.1,4.6,5,1.4,3,1.4,4,.4,6.5-2.4,5.9-10.9,9.2-14,5.5-.7-.8-1.8-1.5-2.5-1.5s-1.2-.6-1.3-1.3c-.1-.6-.5-2.8-.8-4.7-.4-2.7-.1-4.2,1.7-6.3,3.6-4.6,7.3-5.6,11.9-3.2Z"/>
  <path class="st0" d="M250.9,151.9c-3.6,3.6-3.7,7.3-.4,10.6s6.4,3.2,9.9.4c3.7-2.9,3.7-8.9,0-11.8-3.6-2.8-6-2.6-9.5.8ZM261,156.7c0,2-3.4,6.3-5,6.3s-1.6-.7-2.8-1.6c-2.9-2-3-6.8,0-8.8,1.9-1.4,2.4-1.4,5,.2,1.7,1,2.8,2.5,2.8,3.9Z"/>
  <path class="st0" d="M107.9,147.5c-.1.3-.2.9-.3,1.3-.2,1.3-5,7.1-5.6,6.8-.3-.2-1.3.5-2.2,1.6-1.7,1.7-1.7,1.8,0,1.8s3.9-2.7,6.5-6c3.1-4,4.2-6,3.2-6s-1.6.2-1.6.5Z"/>
  <path class="st0" d="M30.6,152.3c-1.5,1.9-2.6,3.9-2.6,4.5s-1.1,1.4-2.5,1.8c-2.1.5-10.5,10.1-10.5,12s6.2-5.1,7.1-7.4c.5-1.4,2-2.5,3.9-2.8,1.6-.4,3-1.2,3-1.9s1.5-2.9,3.4-5c3.4-3.7,3.5-3.7,7.3-2.5,2.1.7,4.1,1.7,4.4,2.3.4.6,1.5.7,2.5.2,1.6-.7,1.3-1-1.8-1.9-2-.6-4-1.4-4.4-1.9-.4-.4-2.2-.7-4-.7-2.6,0-3.9.7-5.8,3.3Z"/>
  <path class="st0" d="M270,149.4c0,.9,4.4,8.1,5.8,9.5s1.1,2,.8,2.8-.6,1.7-.6,2-.7,0-1.5-.7c-1-.9-1.5-.9-1.5-.1s.4,1.1,1,1.1,1.7,1.2,2.5,2.7c.9,1.6,1.4,2,1.1,1.1-.7-2.5,1.5-3.4,3.1-1.3.7,1.1,1.3,2.4,1.3,2.9s-.4.5-.9-.3c-.6-.9-1.1-1-1.5-.2-.4.6-.3,1.1.3,1.1s.8.6.5,1.4-.1,1.7.5,2.1c.6.3.9,0,.5-.8-.3-.8.2-1.7,1.1-2.1,1.3-.5,1.5-.1,1,1.4s-.2,2,.5,2,.9.8.5,2.1c-.5,1.6-.3,2,.6,1.7.8-.3,1.3-1.3,1.3-2.2-.1-.9.2-1.6.7-1.6,1,0-15.3-24.8-16.3-24.9-.5-.1-.8.1-.8.3Z"/>
  <path class="st0" d="M34.7,153.7c-.2.5-.1,3.5.3,6.8l.7,6,.2-6.8c.1-6.2-.2-7.8-1.2-6Z"/>
  <path class="st0" d="M80.8,156.2c-.5,1.1-1.5,1.4-3.4,1-1.9-.3-2.5-.1-2,.7s2.4,1,5.3.6c4.9-.5,7.1-1.5,3.6-1.5s-2.3-.5-2.5-1.2c-.3-.8-.6-.7-1,.4Z"/>
  <path class="st0" d="M44,157.1c0,.5.4.8.9.4.5-.3,1.8.6,2.9,2,1.8,2.3,2,2.3,2.5.6.3-1.3-.3-2.2-2-3-3-1.4-4.3-1.4-4.3,0Z"/>
  <path class="st0" d="M77,162c0,.5.5,1,1,1s1,.4,1,1-2.6,1-5.8,1h-5.7l-3.3,6.2c-1.8,3.5-2.7,5.5-2,4.4,4.1-5.9,2.6-5.5,24.8-5.5h22.9c1.2.1,2.8-.4,3.5-1.1.8-.9.5-1-1.6-.5-1.4.4-3.6.1-4.8-.5-1.8-1-2.4-.9-3.1.1-.6,1-.9.8-.9-.9s-.5-2.2-1.2-2.2-.9-.3,0-1.2c1.9-1.9,1.4-2.9-.8-1.6-1.7,1.1-1.8,1.4-.4,2.9,1.2,1.3,1.2,1.9.3,2.4-1.1.7-24.9,1.4-24.9.7s1.2-1.4,2.8-2.7c1.9-1.8,3.4-2.3,5.4-1.9,3.2.6,4.7-1.1,1.5-2-3.5-.9-8.7-.7-8.7.4Z"/>
  <path class="st0" d="M115.3,162.2c.2.7-.5,1.8-1.6,2.4-1.8,1-1.7,1.1,1.2,1,2-.1,3-.5,2.6-1.4-.2-.6,0-1.2.6-1.2s.7-.5.4-1c-.9-1.5-3.7-1.2-3.2.2Z"/>
  <path class="st0" d="M134.1,161.9c-.9.6-.4,1,1.8,1.3,3.8.6,6.2-.7,2.9-1.5-2.9-.8-3-.8-4.7.2Z"/>
  <path class="st0" d="M268.1,163.3c-1,1.6-1,2.1.1,2.8.7.5,1.9.7,2.6.4.9-.3,1.1.1.7,1.4-.3,1.1-.2,2.2.3,2.5,1.6,1,2.1-3.3.7-4.8-.8-.7-1.2-1.5-1.1-1.7.2-.2-.2-.9-.8-1.5-1-.9-1.6-.7-2.5.9Z"/>
  <path class="st0" d="M229.8,163.7c.6.2,1.2.9,1.2,1.5,0,1.1,6.2,11.7,9.7,16.4,1.3,1.7,2.3,3.5,2.3,4.1s1,1.8,2.2,2.9c2.4,2.1,2.3,1.8-3.5-7.3-2.1-3.4-3.6-6.7-3.2-7.2.3-.6-.4-1.5-1.5-2.1s-1.8-1.5-1.5-1.9c.3-.5-.2-1.2-1.1-1.5s-1.4-1.2-1.1-1.9c.4-1.3-2.1-3.7-3.8-3.6-.5,0-.4.3.3.6Z"/>
  <path class="st0" d="M137,169.1c0,.4,2.4.7,5.3.7,3.3.1,4.7-.2,3.7-.8-1.8-1-9-.9-9,.1Z"/>
  <path class="st0" d="M149.2,169.2c-.9.4,2.7.7,8.1.6,5.4,0,9.6-.2,9.3-.6-.9-.8-15.3-.8-17.4,0Z"/>
  <path class="st0" d="M23.5,170c-14.9,4.1-18.9,10.2-12.7,19.7,1.5,2.3,4,6.4,5.6,9s3.5,5.9,4.3,7.2l1.5,2.3,2.9-2.8c1.6-1.5,2.9-3.4,2.9-4.1s.5-1.1,1-.8c.7.5,1-2.7.8-9.6-.2-7.2-.7-10.4-1.6-10.7s-1.3.8-1.2,3.5c0,13.7-.1,16.3-1.1,16.3s-.8.9-.4,2c.3,1.1.2,2-.3,2-1.3,0-6.4-4.1-5.8-4.7s0-1-.5-1.7c-.5-.6-1.9-2.2-3-3.6-2.9-3.4-6.1-10.9-5.7-13.3.2-1.1,1.2-2.5,2.3-3.1,1-.6,2.5-1.7,3.3-2.3,1.4-1.4,6.3-2.8,13-3.7,4-.6,4.2-.5,4.2,1.9s-.4,2.3-1.5,1.9c-.9-.4-1.5,0-1.5,1s.6,1.6,1.3,1.6c2.5-.1,4.7-2.8,4.7-5.9s-.1-3.1-4.7-3c-2.7.1-6.1.5-7.8.9Z"/>
  <path class="st0" d="M249.2,173c-1.6,1.4-3.7,3-4.7,3.5-1.6,1-1.6,1.4,1.3,5.5,6.3,9.4,9.2,14.1,9.2,15.1s.5.9,1,.9,1,.6,1,1.4.9,2.5,2,3.9c2.4,3,2.8,6.6.6,4.8s-1.6-.9-2.2,0c-.4.8-.3.9.4.5s1.2-.1,1.2.8.9,1.6,2.3,1.6c1.6-.1,3.3-1.7,6.2-6.3,6.9-10.8,6.7-10.1,3.4-14.3-1.6-2-2.9-4.1-2.9-4.5s-1-.9-2.2-.9c-4.1-.1-7.2-3.4-7.2-7.7s.4-4.6.8-5.6c1.3-2.9-6.5-1.9-10.2,1.3ZM253.8,173.2c-.3.7.1,1.9.9,2.6.7.8,1.1,1.7.8,2.1-.2.5.5,2.6,1.6,4.7,1,2.1,2,3.7,2.2,3.5.1-.2,1.2-.1,2.5.3,1.5.5,2.1,1.3,1.8,2.2-.5,1.2-.2,1.2,1.6.3s2-.9,1.5.4c-.3.9.1,1.8.9,2.1,1.6.6,1.9,5.1.4,6.9-6,7.4-5.4,7-7.2,5s-1.8-2.7-2-3.8c-.1-1.1-1.3-3.1-2.5-4.5-1.3-1.4-2.3-3.3-2.3-4.3s-.6-2-1.4-2.3c-1.2-.5-2.8-4.2-2.6-6,.1-.3-.8-1.4-2-2.4l-2.2-1.9,3.3-3.1c3.5-3.1,5.4-3.9,4.7-1.8Z"/>
  <path class="st0" d="M262.1,172.3c-3.3,6.1,2,12.8,7.4,9.3,3.4-2.3,4.1-5.3,1.8-8.5-2.7-3.6-7.5-4-9.2-.8ZM269.1,174.6c1.7,2.1,0,4.9-3.2,4.9s-3.6-2.3-2.5-5.1c.7-1.9,4-1.8,5.7.2Z"/>
  <path class="st0" d="M274.8,171.1c-.3.8.4,2,1.6,2.7,1.4.9,1.6,1.2.4.8-1.4-.4-1.8,0-1.8,1.7s.3,1.8.9.9c.4-.8,1.2-1.3,1.7-1.2,1.7.3,1.4-1.7-.4-4-1.5-1.8-2-2-2.4-.9Z"/>
  <path class="st0" d="M38.7,174c-.4,1.6.4,2.2,4.8,3.6,3.9,1.3,5.5,2.3,5.9,3.9.8,3,4.6,4.1,4.6,1.4s-.5-1.9-1.2-1.9-.9-.3-.5-.6c.8-.8-5.4-6.1-8.7-7.4-3.8-1.4-4.3-1.3-4.9,1Z"/>
  <path class="st0" d="M61.6,180c-2.4,4.2-4.3,6.6-4.7,5.9-.4-.6-1.2-.8-1.8-.5-1.6,1-1.4,2.6.4,2.6s1.5.5,1.5,1.2,1.4-1,3.1-3.8c1.7-2.7,3.5-5.1,4-5.2.5-.2.9-1,.9-1.8s.7-1.7,1.5-2c1.8-.7,2-3.4.3-3.4s-3.1,3.2-5.2,7Z"/>
  <path class="st0" d="M83.7,173.7c-.6.9,11.2.7,12.1-.2s-2.2-.5-5.6-.5-6.3.3-6.5.7Z"/>
  <path class="st0" d="M141.2,173.6c.9.9,44.1,1.2,46.3.3,1.1-.4-9-.8-22.4-.8-13.4-.1-24.2.2-23.9.5Z"/>
  <path class="st0" d="M33.5,180.4c-3.4,5.1,2.1,10.5,6.9,6.9,3.1-2.2,3.3-4.6.6-7.3s-5.6-2.5-7.5.4ZM39.9,181.4c.9,1.1,1,2,.1,3.5-1.4,2.6-3.6,2.7-5,.2-2.1-4,2.1-7.1,4.9-3.7Z"/>
  <path class="st0" d="M276.4,179.1c-.5.9.1,1,2.2.5,2.7-.7,2.7-.6,1,.7-1,.8-1.6,1.9-1.2,2.5,1,1.7,1.9,1.5,3.5-.9,1.1-1.8,1.1-2.3-.1-3-1.9-1.2-4.6-1.1-5.4.2Z"/>
  <path class="st0" d="M291.2,183.7c-4.3,9.1-6.3,12.4-7.2,11.8-.6-.3-1-.1-1,.4,0,4.4,7.8-5.1,9.4-11.3.4-1.7,1.5-3.6,2.4-4.3,1.5-1.1,1.5-1.2.1-1.3-.8,0-2.5,2-3.7,4.7Z"/>
  <path class="st0" d="M273,181.7c0,1,1.5,3.5,3.3,5.5,1.7,2,3.7,4.5,4.3,5.5.7,1,1.5,1.5,2,1s-.1-1.4-1.2-2.1c-1-.8-1.6-1.7-1.2-2.1.3-.4-.1-1.5-1-2.5s-2.7-3-3.9-4.5c-1.9-2.2-2.3-2.4-2.3-.8Z"/>
  <path class="st0" d="M284.2,182.3c-1.2,1.3-2.2,3.3-2.2,4.4,0,2.5,2.5,4.9,3.5,3.3.3-.5-.1-1-1-1s-1.5-.5-1-1.8c.4-.9,1-2.5,1.2-3.5.3-1,1.2-1.6,1.9-1.3.8.3,1.1,0,.7-1-.7-1.8-.6-1.8-3.1.9Z"/>
  <path class="st0" d="M45,185.4c-1.5,4.1-8.8,7.3-10.5,4.6-1.2-1.9-2.2-1-1.8,1.5.5,2.3.9,2.4,7.2,2.4,5-.1,7-.5,8.3-1.8,1.7-1.9.9-4.9-1.1-3.7-.6.4-1.1,0-1.1-.8s.7-1.6,1.5-1.6,1.5.4,1.5,1,.7,1,1.5,1c2.5,0,1.7-1.8-1.5-3.4-3-1.4-3.1-1.4-4,.8Z"/>
  <path class="st0" d="M240,186.3c0,.4.9,2.2,1.9,4.1,1.1,1.9,1.7,3.6,1.5,3.9-.3.2.2.7,1.1,1,1.8.8,1.9.3.4-2.6-1.5-2.7-4.9-7.2-4.9-6.4Z"/>
  <path class="st0" d="M50.9,192.4c-2.8,4.2-3.8,4.5-11.8,3.9l-6.1-.5v2.9c0,2-1.3,4-4.6,7.2-5.1,4.9-5.1,4.1.5,13.6,1.7,2.7,3.8,6.3,4.7,8,3,5.5,4.4,6.5,9.3,6.5s4.1-.4,3.4-.8c-.6-.4-1.6-3.3-2.2-6.6-.6-3.2-1.5-6.4-2-7-1.8-2.1-1.6-8.4.2-10.4s1.7-2.4,1.7-3,.6-1.7,1.3-2.4,3-4.1,5.2-7.6c4-6.6,4.4-9.6.4-3.8ZM43.6,200.5c.9.8,1.3,1.5,1,1.5-1.5,0-2.2.6-3.4,3-1.6,2.8-2.4,5.8-2.4,8.1.1,1.7,2,12.9,2.9,16.6.7,3.1-2.3,3.1-3.3,0-.4-1.2-1-2.4-1.4-2.7s-2.9-4.1-5.4-8.4l-4.7-8,3.5-3.4c2-1.8,3.4-3.8,3.1-4.3-.4-.5.1-.9.9-.9s1.6-.7,1.6-1.5,1-1.5,3.1-1.5,3.7.7,4.5,1.5Z"/>
  <path class="st0" d="M274,189.4c0,1.3,3.3,7.1,4.4,7.8.6.4.7.8.3.8s.5,1.2,2,2.6,2.7,2.9,2.6,3.2c-.1.4,0,.9.2,1.1s.2-.9-.1-2.5-1.2-3.5-2.1-4.2c-.9-.6-1.4-1.2-1-1.2s.2-.6-.5-1.4-1.7-1.1-2.2-.8-.7-.2-.3-1c.3-.9-.3-2.4-1.4-3.4-1-.9-1.9-1.4-1.9-1Z"/>
  <path class="st0" d="M273,200.5c-2.5,4.1-2.4,4.5,1,3.4,1.6-.4,1.9-.7.8-.8-2.4-.1-2.3-1.8.2-2.6,2.1-.7,2.6-2,1.1-2.9-.5-.4-1.9,1-3.1,2.9Z"/>
  <path class="st0" d="M277.4,203.2c-.4.7-.3.8.4.4,2.1-1.3,1.3,1.2-1.5,4.5-1.5,1.7-2.8,3.9-2.9,4.7-.2.8-.6,1.8-1.1,2.1s-1.9,2.7-3.3,5.3c-1.4,2.8-3.3,4.9-4.6,5.2-1.2.3-2.4,1.5-2.7,2.7q-.5,2,1.3.4c1-.9,2.3-1.4,2.8-1.1s1.5-.7,2.3-2.2,1.6-2.9,1.9-3.2c.8-.8,11-17.7,11-18.3,0-1.1-3-1.5-3.6-.5Z"/>
  <path class="st0" d="M253.2,209c1.1,2.2,2.4,4,2.9,4,1.3,0,1.1-.7-1.3-4.5-3.1-4.7-4-4.4-1.6.5Z"/>
  <path class="st0" d="M268.3,208.2c-2.5,2.8-1,3.1,2.1.5,1.9-1.6,2.2-2.4,1.2-2.4s-2.3.9-3.3,1.9Z"/>
  <path class="st0" d="M265.1,213.7c-.7.7-.9,1.7-.6,2.2s-.3,1.2-1.2,1.4c-1,.3-.6.4.9.4,1.5-.1,2.6-.4,2.6-.7-.2-2,.4-3,1.7-3s1.5-.4,1.5-.9c0-1.4-3.4-.9-4.9.6Z"/>
  <path class="st0" d="M254.6,221.2c-.9,3.6-.7,4.1.9,2.4,1.6-1.6,2-4.6.6-4.6s-1.1,1-1.5,2.2Z"/>
  <path class="st0" d="M254.3,233.7c1.2,1.1,7.5,1.4,8.2.3.4-.6-1.1-1-4.1-1s-4.4.3-4.1.7Z"/>
</svg>