<?xml version="1.0" encoding="UTF-8"?>
<svg id="Layer_1" xmlns="http://www.w3.org/2000/svg" version="1.1" viewBox="0 0 1920 1080">
  <!-- Generator: Adobe Illustrator 29.1.0, SVG Export Plug-In . SVG Version: 2.1.0 Build 46)  -->
  <defs>
    <style>
      .st0 {
        fill: #fff;
      }
    </style>
  </defs>
  <path class="st0" d="M1334.3,202.1c-68.8-31.1-142.7-54-219.8-67.1-1.4-.3-2.8.4-3.5,1.6-9.5,16.6-20,38.3-27.4,55.3-83-12.2-165.6-12.2-246.9,0-7.4-17.4-18.3-38.7-27.8-55.3-.7-1.2-2.1-1.9-3.5-1.6-77.1,13.1-151,36-219.8,67.1-.6.3-1.1.7-1.4,1.2-140,205.8-178.4,406.6-159.6,604.9,0,1,.6,1.9,1.4,2.5,92.4,66.8,181.9,107.3,269.7,134.1,1.4.4,2.9,0,3.8-1.2,20.8-27.9,39.3-57.3,55.2-88.3.9-1.8,0-4-1.9-4.7-29.4-11-57.3-24.3-84.2-39.5-2.1-1.2-2.3-4.2-.3-5.7,5.7-4.2,11.3-8.5,16.7-12.9,1-.8,2.3-1,3.5-.5,176.7,79.4,368.1,79.4,542.8,0,1.1-.5,2.5-.4,3.5.4,5.4,4.4,11.1,8.8,16.8,12.9,2,1.4,1.8,4.4-.3,5.7-26.9,15.5-54.9,28.5-84.3,39.5-1.9.7-2.8,2.9-1.8,4.7,16.2,30.9,34.7,60.3,55.1,88.3.9,1.2,2.4,1.7,3.8,1.3,88.2-26.9,177.7-67.4,270.1-134.1.8-.6,1.3-1.5,1.4-2.4,22.5-229.2-37.7-428.3-159.7-604.9-.3-.6-.8-1-1.4-1.3ZM780.9,687.5c-53.2,0-97.1-48.1-97.1-107.1s43-107.1,97.1-107.1,97.9,48.5,97.1,107.1c0,59-43,107.1-97.1,107.1ZM1139.8,687.5c-53.2,0-97.1-48.1-97.1-107.1s43-107.1,97.1-107.1,97.9,48.5,97.1,107.1c0,59-42.6,107.1-97.1,107.1Z"/>
</svg>